<?xml version="1.0" encoding="utf-8"?>
<!-- Generator: Adobe Illustrator 16.0.4, SVG Export Plug-In . SVG Version: 6.00 Build 0)  -->
<!DOCTYPE svg PUBLIC "-//W3C//DTD SVG 1.1//EN" "http://www.w3.org/Graphics/SVG/1.1/DTD/svg11.dtd">
<svg version="1.1" id="Layer_1" xmlns="http://www.w3.org/2000/svg" xmlns:xlink="http://www.w3.org/1999/xlink" x="0px" y="0px"
	 width="288px" height="72px" viewBox="-131.5 132.5 288 72" enable-background="new -131.5 132.5 288 72" xml:space="preserve">
<g id="Arrow_6">
</g>
<g>
	<path fill="#D5D7D8" d="M-75.568,176.113c0.26,0,0.51,0.131,0.693,0.365c0.186,0.232,0.287,0.553,0.288,0.883v2.648
		c0,0.33-0.104,0.648-0.287,0.883c-0.185,0.232-0.435,0.365-0.694,0.365h-3.863c-0.26,0-0.51-0.131-0.694-0.363
		c-0.185-0.234-0.286-0.555-0.286-0.885v-2.648c0-0.33,0.102-0.646,0.286-0.881s0.435-0.367,0.694-0.367H-75.568z"/>
	<path fill="#CCCCCC" d="M-75.568,176.416c0.197,0,0.387,0.102,0.525,0.277s0.218,0.418,0.218,0.668v2.648
		c0,0.25-0.077,0.49-0.218,0.668c-0.139,0.178-0.328,0.277-0.525,0.277h-3.863c-0.197,0-0.387-0.1-0.525-0.275
		c-0.139-0.178-0.218-0.42-0.218-0.67v-2.648c0-0.25,0.077-0.49,0.218-0.668c0.139-0.178,0.329-0.277,0.525-0.277H-75.568z"/>
	<path fill="#D5D7D8" d="M-84.486,183.928c0.262,0,0.51,0.133,0.694,0.365c0.183,0.234,0.287,0.553,0.287,0.883v2.648
		c0,0.33-0.103,0.648-0.287,0.883s-0.435,0.365-0.694,0.367h-3.863c-0.26,0-0.51-0.133-0.693-0.365s-0.287-0.555-0.287-0.885v-2.648
		c0-0.33,0.104-0.646,0.286-0.883c0.185-0.232,0.435-0.365,0.694-0.365H-84.486z"/>
	<path fill="#CCCCCC" d="M-84.486,184.23c0.198,0,0.387,0.1,0.526,0.275c0.14,0.178,0.218,0.42,0.218,0.67v2.648
		c0,0.25-0.078,0.49-0.218,0.668s-0.329,0.277-0.526,0.277h-3.863c-0.196,0-0.385-0.102-0.524-0.277s-0.219-0.418-0.219-0.668
		v-2.648c0-0.25,0.079-0.49,0.218-0.668s0.329-0.277,0.525-0.277H-84.486z"/>
	<path fill="#D5D7D8" d="M-84.486,176.113c0.262,0,0.51,0.131,0.694,0.365c0.183,0.232,0.287,0.553,0.287,0.883v2.648
		c0,0.33-0.103,0.648-0.287,0.883c-0.185,0.232-0.435,0.365-0.694,0.365h-3.863c-0.26,0-0.51-0.131-0.693-0.363
		c-0.184-0.234-0.287-0.555-0.287-0.885v-2.648c0-0.33,0.104-0.646,0.286-0.881c0.185-0.234,0.435-0.367,0.694-0.367H-84.486z"/>
	<path fill="#CCCCCC" d="M-84.486,176.416c0.198,0,0.387,0.102,0.526,0.277s0.218,0.418,0.218,0.668v2.648
		c0,0.25-0.078,0.49-0.218,0.668s-0.329,0.277-0.526,0.277h-3.863c-0.196,0-0.385-0.1-0.524-0.275
		c-0.14-0.178-0.219-0.42-0.219-0.67v-2.648c0-0.25,0.079-0.49,0.218-0.668s0.329-0.277,0.525-0.277H-84.486z"/>
	<path fill="#D5D7D8" d="M-66.65,176.113c0.26,0,0.51,0.131,0.692,0.365c0.185,0.232,0.288,0.553,0.288,0.883v2.648
		c0.001,0.33-0.104,0.648-0.288,0.883c-0.183,0.232-0.435,0.365-0.692,0.365h-3.865c-0.26,0-0.51-0.131-0.691-0.363
		c-0.186-0.234-0.288-0.555-0.289-0.885v-2.648c0-0.33,0.104-0.646,0.287-0.881s0.436-0.367,0.693-0.367H-66.65z"/>
	<path fill="#CCCCCC" d="M-66.65,176.416c0.195,0,0.387,0.102,0.525,0.277s0.216,0.418,0.216,0.668v2.648
		c0,0.25-0.077,0.49-0.216,0.668c-0.141,0.178-0.33,0.277-0.525,0.277h-3.865c-0.195,0-0.385-0.1-0.524-0.275
		c-0.14-0.178-0.218-0.42-0.218-0.67v-2.648c-0.001-0.25,0.078-0.49,0.217-0.668c0.141-0.178,0.33-0.277,0.525-0.277H-66.65z"/>
	<path fill="#D5D7D8" d="M-66.65,183.928c0.26,0,0.51,0.133,0.692,0.365c0.185,0.234,0.288,0.553,0.288,0.883v2.648
		c0.001,0.33-0.104,0.648-0.288,0.883c-0.183,0.234-0.435,0.365-0.692,0.367h-3.865c-0.26,0-0.51-0.133-0.691-0.365
		c-0.186-0.232-0.288-0.555-0.289-0.885v-2.648c0-0.33,0.104-0.646,0.287-0.883c0.184-0.232,0.436-0.365,0.693-0.365H-66.65z"/>
	<path fill="#CCCCCC" d="M-66.65,184.23c0.195,0,0.387,0.1,0.525,0.275c0.139,0.178,0.216,0.42,0.216,0.67v2.648
		c0,0.25-0.077,0.49-0.216,0.668c-0.141,0.178-0.33,0.277-0.525,0.277h-3.865c-0.195,0-0.385-0.102-0.524-0.277
		s-0.218-0.418-0.218-0.668v-2.648c-0.001-0.25,0.078-0.49,0.217-0.668c0.141-0.178,0.33-0.277,0.525-0.277H-66.65z"/>
	<path fill="#D5D7D8" d="M-75.568,183.928c0.26,0,0.51,0.133,0.693,0.365c0.186,0.234,0.287,0.553,0.288,0.883v2.648
		c0,0.33-0.104,0.648-0.287,0.883c-0.185,0.234-0.435,0.365-0.694,0.367h-3.863c-0.26,0-0.51-0.133-0.694-0.365
		s-0.286-0.555-0.286-0.885v-2.648c0-0.33,0.102-0.646,0.286-0.883c0.185-0.232,0.435-0.365,0.694-0.365H-75.568z"/>
	<path fill="#CCCCCC" d="M-75.568,184.23c0.197,0,0.387,0.1,0.525,0.275c0.141,0.178,0.218,0.42,0.218,0.67v2.648
		c0,0.25-0.077,0.49-0.218,0.668c-0.139,0.178-0.328,0.277-0.525,0.277h-3.863c-0.197,0-0.387-0.102-0.525-0.277
		s-0.218-0.418-0.218-0.668v-2.648c0-0.25,0.077-0.49,0.218-0.668c0.139-0.178,0.329-0.277,0.525-0.277H-75.568z"/>
	<path fill="#D5D7D8" d="M-84.486,191.742c0.262,0,0.51,0.131,0.694,0.365c0.183,0.232,0.287,0.553,0.287,0.883v2.648
		c0,0.33-0.103,0.648-0.287,0.885c-0.185,0.23-0.435,0.363-0.694,0.363h-3.863c-0.26,0-0.51-0.131-0.693-0.363
		c-0.184-0.236-0.287-0.555-0.287-0.885v-2.648c0-0.33,0.104-0.648,0.286-0.883c0.185-0.232,0.435-0.365,0.694-0.365H-84.486z"/>
	<path fill="#CCCCCC" d="M-84.486,192.045c0.198,0,0.387,0.1,0.526,0.277c0.14,0.176,0.218,0.418,0.218,0.668v2.648
		c0,0.252-0.078,0.49-0.218,0.668s-0.329,0.277-0.526,0.277h-3.863c-0.196,0-0.385-0.1-0.524-0.275
		c-0.14-0.178-0.219-0.418-0.219-0.67v-2.648c0-0.25,0.079-0.49,0.218-0.668s0.329-0.277,0.525-0.277H-84.486z"/>
	<path fill="#D5D7D8" d="M-66.65,191.742c0.26,0,0.51,0.131,0.692,0.365c0.185,0.232,0.288,0.553,0.288,0.883v2.648
		c0.001,0.33-0.104,0.648-0.288,0.885c-0.183,0.23-0.435,0.363-0.692,0.363h-3.865c-0.26,0-0.51-0.131-0.691-0.363
		c-0.186-0.236-0.288-0.555-0.289-0.885v-2.648c0-0.33,0.104-0.648,0.287-0.883c0.184-0.232,0.436-0.365,0.693-0.365H-66.65z"/>
	<path fill="#CCCCCC" d="M-66.65,192.045c0.195,0,0.387,0.1,0.525,0.277c0.139,0.176,0.216,0.418,0.216,0.668v2.648
		c0,0.252-0.077,0.49-0.216,0.668c-0.141,0.178-0.33,0.277-0.525,0.277h-3.865c-0.195,0-0.385-0.1-0.524-0.275
		s-0.218-0.418-0.218-0.67v-2.648c-0.001-0.25,0.078-0.49,0.217-0.668c0.141-0.178,0.33-0.277,0.525-0.277H-66.65z"/>
	<path fill="#D5D7D8" d="M-75.568,191.742c0.26,0,0.51,0.131,0.693,0.365c0.186,0.232,0.287,0.553,0.288,0.883v2.648
		c0,0.33-0.104,0.648-0.287,0.885c-0.185,0.23-0.435,0.363-0.694,0.363h-3.863c-0.26,0-0.51-0.131-0.694-0.363
		c-0.185-0.236-0.286-0.555-0.286-0.885v-2.648c0-0.33,0.102-0.648,0.286-0.883c0.185-0.232,0.435-0.365,0.694-0.365H-75.568z"/>
	<path fill="#CCCCCC" d="M-75.568,192.045c0.197,0,0.387,0.1,0.525,0.277c0.141,0.176,0.218,0.418,0.218,0.668v2.648
		c0,0.252-0.077,0.49-0.218,0.668c-0.139,0.178-0.328,0.277-0.525,0.277h-3.863c-0.197,0-0.387-0.1-0.525-0.275
		c-0.139-0.178-0.218-0.418-0.218-0.67v-2.648c0-0.25,0.077-0.49,0.218-0.668c0.139-0.178,0.329-0.277,0.525-0.277H-75.568z"/>
</g>
<g display="none">
	<path display="inline" fill="#FFFFFF" d="M141-7.5c-9.648,0-17.5-7.851-17.5-17.5s7.852-17.5,17.5-17.5s17.5,7.851,17.5,17.5
		S150.648-7.5,141-7.5z"/>
	<path display="inline" d="M141-42c9.374,0,17,7.626,17,17s-7.626,17-17,17s-17-7.626-17-17S131.626-42,141-42 M141-43
		c-9.941,0-18,8.059-18,18s8.059,18,18,18s18-8.059,18-18S150.941-43,141-43L141-43z"/>
</g>
<g display="none">
	<path display="inline" fill="#FFFFFF" d="M200-7.5c-9.648,0-17.5-7.851-17.5-17.5s7.852-17.5,17.5-17.5s17.5,7.851,17.5,17.5
		S209.648-7.5,200-7.5z"/>
	<path display="inline" d="M200-42c9.374,0,17,7.626,17,17s-7.626,17-17,17s-17-7.626-17-17S190.626-42,200-42 M200-43
		c-9.941,0-18,8.059-18,18s8.059,18,18,18s18-8.059,18-18S209.941-43,200-43L200-43z"/>
</g>
<g>
	<path fill="#CCCCCC" d="M-31.778,183.982L-27,186.69l-4.744,2.777l-0.014-2.007l-11.578-0.027c0.089,0.162,0.181,0.334,0.269,0.51
		c0.593,1.144,1.339,2.585,4.628,2.638v-1.408h4.055v4.054h-4.055v-1.256c-4.132-0.055-5.095-1.917-5.86-3.393
		c-0.275-0.533-0.513-0.993-0.936-1.151l-6.054-0.016c-0.277,1.019-1.205,1.762-2.313,1.762c-1.328,0-2.398-1.069-2.398-2.396
		c0-1.329,1.07-2.398,2.398-2.398c1.034,0,1.909,0.647,2.25,1.56l3.762,0.01c0.266-0.473,0.447-0.928,0.611-1.342
		c0.731-1.839,1.229-3.087,5.511-3.112c0.285-0.991,1.191-1.72,2.289-1.72c1.309,0,2.379,1.068,2.379,2.379
		c0,1.312-1.07,2.38-2.379,2.38c-1.071,0-1.961-0.694-2.269-1.649c-3.364,0.021-3.722,0.913-4.245,2.23
		c-0.106,0.267-0.217,0.545-0.35,0.837l14.275,0.036L-31.778,183.982L-31.778,183.982z"/>
</g>
<g>
	<path fill="#CCCCCC" d="M-16.57,178.926v15.172h-2.018v-15.172H-16.57z"/>
	<path fill="#CCCCCC" d="M-7.37,178.564l-6.29,15.871h-1.531l6.271-15.871H-7.37z"/>
	<path fill="#CCCCCC" d="M-6.49,183.525c0.307-0.955,0.762-1.802,1.372-2.539c0.608-0.736,1.366-1.324,2.274-1.763
		c0.904-0.44,1.962-0.659,3.164-0.659c1.205,0,2.26,0.219,3.166,0.659c0.906,0.438,1.666,1.025,2.272,1.763
		c0.61,0.737,1.065,1.584,1.372,2.539c0.305,0.956,0.456,1.951,0.456,2.985s-0.151,2.027-0.456,2.984
		c-0.307,0.956-0.762,1.804-1.372,2.541c-0.606,0.733-1.366,1.319-2.272,1.75c-0.906,0.434-1.961,0.647-3.166,0.647
		c-1.202,0-2.26-0.215-3.164-0.647c-0.908-0.431-1.666-1.017-2.274-1.75c-0.61-0.737-1.065-1.585-1.372-2.541
		c-0.304-0.957-0.455-1.95-0.455-2.984C-6.945,185.478-6.793,184.481-6.49,183.525z M-4.629,188.774
		c0.2,0.743,0.51,1.413,0.937,2.009c0.424,0.595,0.971,1.07,1.637,1.434c0.664,0.361,1.457,0.541,2.377,0.541
		c0.922,0,1.715-0.18,2.383-0.541c0.663-0.361,1.209-0.839,1.636-1.434c0.425-0.596,0.736-1.266,0.935-2.009
		c0.197-0.744,0.297-1.499,0.297-2.264c0-0.766-0.1-1.52-0.297-2.264s-0.51-1.412-0.935-2.008c-0.427-0.595-0.973-1.072-1.636-1.435
		c-0.668-0.36-1.461-0.542-2.383-0.542c-0.92,0-1.713,0.182-2.377,0.542c-0.666,0.361-1.213,0.84-1.637,1.435
		c-0.427,0.596-0.736,1.264-0.937,2.008c-0.197,0.744-0.298,1.498-0.298,2.264C-4.927,187.275-4.827,188.03-4.629,188.774z"/>
</g>
<g>
	<path fill="#D5D7D8" d="M-75.567,140.113c0.26,0,0.508,0.131,0.692,0.365c0.185,0.232,0.287,0.553,0.288,0.883v2.648
		c0,0.33-0.104,0.648-0.287,0.883c-0.186,0.232-0.436,0.365-0.693,0.365h-3.865c-0.26,0-0.51-0.131-0.693-0.365
		c-0.184-0.232-0.286-0.553-0.286-0.883v-2.648c0-0.33,0.103-0.646,0.286-0.883c0.184-0.232,0.434-0.365,0.693-0.365H-75.567z"/>
	<path fill="#0071BB" d="M-75.567,140.416c0.196,0,0.385,0.1,0.524,0.275c0.14,0.178,0.218,0.42,0.218,0.67v2.648
		c0,0.25-0.078,0.49-0.218,0.668s-0.328,0.277-0.524,0.277h-3.865c-0.196,0-0.387-0.102-0.524-0.275
		c-0.14-0.178-0.218-0.42-0.218-0.67v-2.648c0-0.25,0.078-0.49,0.218-0.668c0.138-0.178,0.329-0.277,0.524-0.277H-75.567z"/>
	<path fill="#D5D7D8" d="M-84.485,147.928c0.26,0,0.51,0.131,0.693,0.365c0.184,0.232,0.287,0.553,0.287,0.883v2.648
		c0,0.33-0.104,0.646-0.287,0.883c-0.186,0.234-0.434,0.363-0.695,0.367h-3.863c-0.26,0-0.51-0.133-0.693-0.365
		c-0.184-0.234-0.287-0.555-0.287-0.885v-2.648c0-0.33,0.104-0.648,0.286-0.883c0.185-0.232,0.435-0.365,0.694-0.365H-84.485z"/>
	<path fill="#0071BB" d="M-84.485,148.23c0.197,0,0.387,0.1,0.525,0.275c0.139,0.178,0.218,0.42,0.218,0.67v2.648
		c0,0.25-0.079,0.49-0.218,0.668s-0.329,0.275-0.525,0.275h-3.865c-0.195,0-0.385-0.1-0.523-0.275
		c-0.139-0.178-0.219-0.418-0.219-0.668v-2.648c0-0.25,0.08-0.49,0.218-0.668c0.14-0.178,0.329-0.277,0.524-0.277H-84.485z"/>
	<path fill="#D5D7D8" d="M-84.485,140.113c0.26,0,0.51,0.131,0.693,0.365c0.184,0.232,0.287,0.553,0.287,0.883v2.648
		c0,0.33-0.104,0.648-0.287,0.883c-0.186,0.232-0.434,0.365-0.695,0.365h-3.863c-0.26,0-0.51-0.131-0.693-0.365
		c-0.184-0.232-0.287-0.553-0.287-0.883v-2.648c0-0.33,0.104-0.646,0.286-0.883c0.185-0.232,0.435-0.365,0.694-0.365H-84.485z"/>
	<path fill="#0071BB" d="M-84.485,140.416c0.197,0,0.387,0.1,0.525,0.275c0.139,0.178,0.218,0.42,0.218,0.67v2.648
		c0,0.25-0.079,0.49-0.218,0.668s-0.329,0.277-0.525,0.277h-3.865c-0.195,0-0.385-0.102-0.523-0.275
		c-0.139-0.178-0.219-0.42-0.219-0.67v-2.648c0-0.25,0.08-0.49,0.218-0.668c0.14-0.178,0.329-0.277,0.524-0.277H-84.485z"/>
	<path fill="#D5D7D8" d="M-66.651,140.113c0.26,0,0.51,0.131,0.693,0.365c0.186,0.232,0.288,0.553,0.288,0.883v2.648
		c0.001,0.33-0.104,0.648-0.288,0.883c-0.184,0.232-0.434,0.365-0.693,0.365h-3.863c-0.26,0-0.51-0.131-0.692-0.365
		c-0.185-0.232-0.288-0.553-0.289-0.883v-2.648c0-0.33,0.104-0.646,0.287-0.883c0.185-0.232,0.435-0.365,0.694-0.365H-66.651z"/>
	<path fill="#0071BB" d="M-66.651,140.416c0.196,0,0.387,0.1,0.526,0.275c0.14,0.178,0.216,0.42,0.216,0.67v2.648
		c0,0.25-0.076,0.49-0.216,0.668s-0.33,0.277-0.526,0.277h-3.863c-0.196,0-0.387-0.102-0.525-0.275
		c-0.141-0.178-0.218-0.42-0.218-0.67v-2.648c-0.001-0.25,0.077-0.49,0.217-0.668s0.33-0.277,0.526-0.277H-66.651z"/>
	<path fill="#D5D7D8" d="M-66.651,147.928c0.26,0,0.51,0.131,0.693,0.365c0.186,0.232,0.288,0.553,0.288,0.883v2.648
		c0.001,0.33-0.104,0.646-0.288,0.883c-0.184,0.234-0.434,0.363-0.693,0.367h-3.863c-0.26,0-0.51-0.133-0.692-0.365
		c-0.185-0.234-0.288-0.555-0.289-0.885v-2.648c0-0.33,0.104-0.648,0.287-0.883c0.185-0.232,0.435-0.365,0.694-0.365H-66.651z"/>
	<path fill="#0071BB" d="M-66.651,148.23c0.196,0,0.387,0.1,0.526,0.275c0.14,0.178,0.216,0.42,0.216,0.67v2.648
		c0,0.25-0.076,0.49-0.216,0.668s-0.33,0.275-0.526,0.275h-3.863c-0.196,0-0.387-0.1-0.525-0.275s-0.218-0.418-0.218-0.668v-2.648
		c-0.001-0.25,0.077-0.49,0.217-0.668s0.33-0.277,0.526-0.277H-66.651z"/>
	<path fill="#D5D7D8" d="M-75.567,147.928c0.26,0,0.508,0.131,0.692,0.365c0.185,0.232,0.287,0.553,0.288,0.883v2.648
		c0,0.33-0.104,0.646-0.287,0.883c-0.186,0.234-0.436,0.363-0.693,0.367h-3.865c-0.26,0-0.51-0.133-0.693-0.365
		c-0.184-0.234-0.286-0.555-0.286-0.885v-2.648c0-0.33,0.103-0.648,0.286-0.883c0.184-0.232,0.434-0.365,0.693-0.365H-75.567z"/>
	<path fill="#0071BB" d="M-75.567,148.23c0.196,0,0.385,0.1,0.524,0.275c0.14,0.178,0.218,0.42,0.218,0.67v2.648
		c0,0.25-0.078,0.49-0.218,0.668s-0.328,0.275-0.524,0.275h-3.865c-0.196,0-0.387-0.1-0.524-0.275
		c-0.14-0.178-0.218-0.418-0.218-0.668v-2.648c0-0.25,0.078-0.49,0.218-0.668c0.138-0.178,0.329-0.277,0.524-0.277H-75.567z"/>
	<path fill="#D5D7D8" d="M-84.485,155.742c0.26,0,0.51,0.131,0.693,0.365c0.184,0.232,0.287,0.553,0.287,0.883v2.648
		c0,0.33-0.104,0.648-0.287,0.883c-0.186,0.232-0.434,0.365-0.695,0.365h-3.863c-0.26,0-0.51-0.131-0.693-0.365
		s-0.287-0.553-0.287-0.883v-2.648c0-0.33,0.104-0.648,0.286-0.883c0.185-0.232,0.435-0.365,0.694-0.365H-84.485z"/>
	<path fill="#0071BB" d="M-84.485,156.045c0.197,0,0.387,0.1,0.525,0.275c0.139,0.178,0.218,0.42,0.218,0.67v2.648
		c0,0.25-0.079,0.49-0.218,0.668c-0.139,0.176-0.329,0.277-0.525,0.277h-3.865c-0.195,0-0.385-0.1-0.523-0.275
		c-0.139-0.178-0.219-0.42-0.219-0.67v-2.648c0-0.25,0.08-0.49,0.218-0.668c0.14-0.178,0.329-0.277,0.524-0.277H-84.485z"/>
	<path fill="#D5D7D8" d="M-66.651,155.742c0.26,0,0.51,0.131,0.693,0.365c0.186,0.232,0.288,0.553,0.288,0.883v2.648
		c0.001,0.33-0.104,0.648-0.288,0.883c-0.184,0.232-0.434,0.365-0.693,0.365h-3.863c-0.26,0-0.51-0.131-0.692-0.365
		c-0.185-0.234-0.288-0.553-0.289-0.883v-2.648c0-0.33,0.104-0.648,0.287-0.883c0.185-0.232,0.435-0.365,0.694-0.365H-66.651z"/>
	<path fill="#0071BB" d="M-66.651,156.045c0.196,0,0.387,0.1,0.526,0.275c0.14,0.178,0.216,0.42,0.216,0.67v2.648
		c0,0.25-0.076,0.49-0.216,0.668c-0.14,0.176-0.33,0.277-0.526,0.277h-3.863c-0.196,0-0.387-0.1-0.525-0.275s-0.218-0.42-0.218-0.67
		v-2.648c-0.001-0.25,0.077-0.49,0.217-0.668s0.33-0.277,0.526-0.277H-66.651z"/>
	<path fill="#D5D7D8" d="M-75.567,155.742c0.26,0,0.508,0.131,0.692,0.365c0.185,0.232,0.287,0.553,0.288,0.883v2.648
		c0,0.33-0.104,0.648-0.287,0.883c-0.186,0.232-0.436,0.365-0.693,0.365h-3.865c-0.26,0-0.51-0.131-0.693-0.365
		s-0.286-0.553-0.286-0.883v-2.648c0-0.33,0.103-0.648,0.286-0.883c0.184-0.232,0.434-0.365,0.693-0.365H-75.567z"/>
	<path fill="#0071BB" d="M-75.567,156.045c0.196,0,0.385,0.1,0.524,0.275c0.14,0.178,0.218,0.42,0.218,0.67v2.648
		c0,0.25-0.078,0.49-0.218,0.668c-0.14,0.176-0.328,0.277-0.524,0.277h-3.865c-0.196,0-0.387-0.1-0.524-0.275
		c-0.14-0.178-0.218-0.42-0.218-0.67v-2.648c0-0.25,0.078-0.49,0.218-0.668c0.138-0.178,0.329-0.277,0.524-0.277H-75.567z"/>
</g>
<g>
	<path fill="#0071BB" d="M-31.778,147.983L-27,150.69l-4.744,2.777l-0.014-2.007l-11.578-0.029c0.089,0.164,0.181,0.336,0.269,0.512
		c0.593,1.144,1.339,2.585,4.628,2.64v-1.41h4.055v4.054h-4.055v-1.256c-4.132-0.055-5.095-1.917-5.86-3.393
		c-0.275-0.533-0.513-0.993-0.936-1.151l-6.054-0.016c-0.277,1.02-1.205,1.762-2.313,1.762c-1.328,0-2.398-1.069-2.398-2.396
		c0-1.329,1.07-2.397,2.398-2.397c1.034,0,1.909,0.646,2.25,1.56l3.762,0.009c0.266-0.474,0.447-0.928,0.611-1.341
		c0.731-1.84,1.229-3.087,5.511-3.113c0.285-0.991,1.191-1.72,2.289-1.72c1.309,0,2.379,1.068,2.379,2.38
		c0,1.311-1.07,2.379-2.379,2.379c-1.071,0-1.961-0.694-2.269-1.649c-3.364,0.02-3.722,0.913-4.245,2.23
		c-0.106,0.267-0.217,0.545-0.35,0.837l14.275,0.036L-31.778,147.983L-31.778,147.983z"/>
</g>
<g>
	<path fill="#0071BB" d="M-16.57,142.926v15.172h-2.018v-15.172H-16.57z"/>
	<path fill="#0071BB" d="M-7.37,142.564l-6.29,15.871h-1.531l6.271-15.871H-7.37z"/>
	<path fill="#0071BB" d="M-6.49,147.525c0.307-0.955,0.762-1.802,1.372-2.539c0.608-0.736,1.366-1.324,2.274-1.763
		c0.904-0.44,1.962-0.659,3.164-0.659c1.205,0,2.26,0.219,3.166,0.659c0.906,0.438,1.666,1.026,2.272,1.763
		c0.61,0.737,1.065,1.584,1.372,2.539c0.305,0.956,0.456,1.951,0.456,2.986c0,1.033-0.151,2.027-0.456,2.984
		c-0.307,0.955-0.762,1.803-1.372,2.541c-0.606,0.733-1.366,1.319-2.272,1.75c-0.906,0.434-1.961,0.647-3.166,0.647
		c-1.202,0-2.26-0.216-3.164-0.647c-0.908-0.431-1.666-1.017-2.274-1.75c-0.61-0.738-1.065-1.586-1.372-2.541
		c-0.304-0.957-0.455-1.951-0.455-2.984C-6.945,149.478-6.793,148.481-6.49,147.525z M-4.629,152.774
		c0.2,0.744,0.51,1.414,0.937,2.009c0.424,0.596,0.971,1.071,1.637,1.434c0.664,0.361,1.457,0.541,2.377,0.541
		c0.922,0,1.715-0.18,2.383-0.541c0.663-0.361,1.209-0.838,1.636-1.434c0.425-0.595,0.736-1.265,0.935-2.009
		c0.197-0.743,0.297-1.499,0.297-2.263c0-0.766-0.1-1.52-0.297-2.264s-0.51-1.412-0.935-2.008c-0.427-0.596-0.973-1.072-1.636-1.436
		c-0.668-0.36-1.461-0.542-2.383-0.542c-0.92,0-1.713,0.182-2.377,0.542c-0.666,0.361-1.213,0.84-1.637,1.436
		c-0.427,0.596-0.736,1.264-0.937,2.008c-0.197,0.744-0.298,1.498-0.298,2.264C-4.927,151.275-4.827,152.031-4.629,152.774z"/>
</g>
<g>
	<g>
		<path fill="#0071BB" d="M30.5,166.239c-8.971,0-16.27-7.062-16.27-15.739s7.299-15.739,16.27-15.739s16.27,7.062,16.27,15.739
			C46.77,159.18,39.471,166.239,30.5,166.239z M30.5,135.534c-8.545,0-15.496,6.713-15.496,14.966s6.951,14.967,15.496,14.967
			s15.496-6.714,15.496-14.967S39.045,135.534,30.5,135.534z"/>
	</g>
	<g>
		<path fill="#0071BB" d="M42.704,160.518c0,0.976-6.14,5.479-12.149,5.479c-6.014,0-11.897-4.505-11.897-5.479v-14.807
			c0-1.953,1.582-3.534,3.532-3.534h16.981c1.951,0,3.533,1.582,3.533,3.534V160.518L42.704,160.518z"/>
	</g>
	<g>
		<g>
			<path fill="#FFFFFF" d="M23.633,161.229c-1.21,0-2.193-0.982-2.193-2.192s0.983-2.194,2.193-2.194
				c1.211,0,2.195,0.984,2.195,2.194S24.844,161.229,23.633,161.229z M23.633,157.034c-1.104,0-2.001,0.897-2.001,2.001
				s0.897,2,2.001,2s2.001-0.896,2.001-2S24.736,157.034,23.633,157.034z"/>
		</g>
		<g>
			<path fill="#FFFFFF" d="M30.68,161.396c-1.209,0-2.193-0.984-2.193-2.192c0-1.211,0.984-2.194,2.193-2.194
				c1.211,0,2.194,0.983,2.194,2.194C32.874,160.412,31.891,161.396,30.68,161.396z M30.68,157.203
				c-1.104,0-1.998,0.896-1.998,2.001c0,1.103,0.896,2,1.998,2c1.104,0,2.002-0.897,2.002-2S31.783,157.203,30.68,157.203z"/>
		</g>
		<g>
			<path fill="#FFFFFF" d="M37.727,161.564c-1.211,0-2.193-0.983-2.193-2.193s0.982-2.194,2.193-2.194s2.193,0.984,2.193,2.194
				S38.938,161.564,37.727,161.564z M37.727,157.369c-1.104,0-2,0.898-2,2.002s0.896,2,2,2c1.104,0,2.002-0.896,2.002-2
				S38.83,157.369,37.727,157.369z"/>
		</g>
	</g>
	<g>
		<rect x="21.426" y="144.954" fill="#FFFFFF" width="18.846" height="10.128"/>
		<path fill="#0071BB" d="M40.368,155.18H21.327v-10.32h19.041V155.18z M21.521,154.986h18.651v-9.936H21.521V154.986z"/>
	</g>
	<g>
		<g>
			<path fill="#0071BB" d="M25.516,150.938l-0.008,0.01v1.167h-0.587v-1.177h0.576l0.011-0.008v-1.166h0.577l0.01-0.01v-1.165
				h-2.349v-0.587h2.936v1.762h-0.578l-0.009,0.008v1.166H25.516z"/>
		</g>
		<g>
			<path fill="#0071BB" d="M28.443,151.525h0.586v0.589h-0.586V151.525z"/>
		</g>
		<g>
			<path fill="#0071BB" d="M33.15,151.525l-0.01,0.01v0.579h-1.762v-0.579l-0.01-0.01h-0.578v-2.937h0.578l0.01-0.01v-0.578h1.762
				v0.578l0.01,0.01h0.578v2.937H33.15z M33.143,148.6l-0.012-0.01h-1.742l-0.009,0.01v2.916l0.009,0.01h1.742l0.012-0.01V148.6z"/>
		</g>
		<g>
			<path fill="#0071BB" d="M36.674,151.525l-0.01,0.01v0.579h-1.762v-0.579l-0.01-0.01h-0.578v-2.937h0.578l0.01-0.01v-0.578h1.762
				v0.578l0.01,0.01h0.578v2.937H36.674z M36.664,148.6l-0.008-0.01h-1.743l-0.011,0.01v2.916l0.011,0.01h1.743l0.008-0.01V148.6z"
				/>
		</g>
	</g>
</g>
<g>
	<g>
		<path fill="#CCCCCC" d="M30.5,202.337c-9.025,0-16.369-7.104-16.369-15.837s7.344-15.837,16.369-15.837
			s16.369,7.104,16.369,15.837S39.525,202.337,30.5,202.337z M30.5,171.441c-8.598,0-15.592,6.754-15.592,15.059
			s6.994,15.061,15.592,15.061s15.592-6.756,15.592-15.061S39.098,171.441,30.5,171.441z"/>
	</g>
	<g>
		<path fill="#CCCCCC" d="M42.779,196.579c0,0.981-6.178,5.514-12.227,5.514c-6.05,0-11.971-4.532-11.971-5.514v-14.897
			c0-1.965,1.591-3.557,3.555-3.557h17.088c1.963,0,3.555,1.592,3.555,3.557V196.579z"/>
	</g>
	<g>
		<g>
			<path fill="#FFFFFF" d="M23.591,197.296c-1.218,0-2.208-0.991-2.208-2.208s0.99-2.207,2.208-2.207s2.208,0.99,2.208,2.207
				S24.809,197.296,23.591,197.296z M23.591,193.074c-1.11,0-2.014,0.902-2.014,2.014s0.903,2.014,2.014,2.014
				c1.109,0,2.013-0.901,2.013-2.014C25.604,193.979,24.7,193.074,23.591,193.074z"/>
		</g>
		<g>
			<path fill="#FFFFFF" d="M30.682,197.465c-1.219,0-2.207-0.99-2.207-2.207c0-1.219,0.988-2.208,2.207-2.208
				c1.217,0,2.207,0.989,2.207,2.208C32.889,196.475,31.898,197.465,30.682,197.465z M30.682,193.244
				c-1.111,0-2.013,0.902-2.013,2.014s0.901,2.012,2.013,2.012c1.109,0,2.014-0.9,2.014-2.012S31.791,193.244,30.682,193.244z"/>
		</g>
		<g>
			<path fill="#FFFFFF" d="M37.771,197.634c-1.22,0-2.209-0.989-2.209-2.208c0-1.217,0.989-2.208,2.209-2.208
				c1.217,0,2.207,0.991,2.207,2.208C39.979,196.645,38.989,197.634,37.771,197.634z M37.771,193.412
				c-1.11,0-2.014,0.904-2.014,2.014c0,1.11,0.902,2.014,2.014,2.014c1.108,0,2.013-0.903,2.013-2.014
				C39.784,194.316,38.881,193.412,37.771,193.412z"/>
		</g>
	</g>
	<g>
		<rect x="21.369" y="180.92" fill="#FFFFFF" width="18.963" height="10.189"/>
		<path fill="#CCCCCC" d="M40.43,191.209H21.271v-10.386H40.43V191.209z M21.466,191.016h18.769v-9.998H21.466V191.016
			L21.466,191.016z"/>
	</g>
	<g>
		<g>
			<path fill="#CCCCCC" d="M25.484,186.941l-0.008,0.009v1.174h-0.592v-1.183h0.58l0.012-0.01v-1.172h0.58l0.01-0.01v-1.172h-2.362
				v-0.592h2.952v1.772h-0.581l-0.009,0.009v1.174H25.484z"/>
		</g>
		<g>
			<path fill="#CCCCCC" d="M28.432,187.531h0.59v0.593h-0.59V187.531z"/>
		</g>
		<g>
			<path fill="#CCCCCC" d="M33.167,187.531l-0.009,0.01v0.583h-1.772v-0.583l-0.01-0.01h-0.582v-2.953h0.582l0.01-0.01v-0.582h1.772
				v0.582l0.009,0.01h0.582v2.953H33.167z M33.158,184.587l-0.012-0.009h-1.754l-0.008,0.009v2.937l0.008,0.009h1.754l0.012-0.009
				V184.587z"/>
		</g>
		<g>
			<path fill="#CCCCCC" d="M36.712,187.531l-0.01,0.01v0.583h-1.771v-0.583l-0.011-0.01h-0.582v-2.953h0.582l0.011-0.01v-0.582
				h1.771v0.582l0.01,0.01h0.582v2.953H36.712z M36.702,184.587l-0.009-0.009h-1.754l-0.01,0.009v2.937l0.01,0.009h1.754
				l0.009-0.009V184.587z"/>
		</g>
	</g>
</g>
<g>
	<path fill="#0071BB" d="M-104.283,151.388v0.5c0,4.939-4.32,9.271-9.246,9.271c-5.098,0-9.246-4.143-9.246-9.234
		c0-5.074,4.169-9.206,9.307-9.238v3.57l8.763-5.053l-8.763-5.053v2.854c-7.139,0.031-12.938,5.821-12.938,12.934
		c0,7.119,5.79,12.91,12.906,12.91c7.356,0,12.904-5.572,12.904-12.961v-0.5H-104.283z"/>
	<path fill="#0071BB" d="M-113.529,148.782c-1.741,0-3.157,1.417-3.157,3.158c0,1.74,1.417,3.156,3.157,3.156
		s3.157-1.416,3.157-3.156C-110.372,150.199-111.788,148.782-113.529,148.782z"/>
</g>
<g id="Arrow_27">
</g>
<g display="none">
	<g display="inline">
		<path d="M74-42c9.374,0,17,7.626,17,17S83.374-8,74-8s-17-7.626-17-17S64.626-42,74-42 M74-43c-9.941,0-18,8.059-18,18
			S64.059-7,74-7s18-8.059,18-18S83.941-43,74-43L74-43z"/>
	</g>
	<g display="inline">
		<g>
			<path d="M18-42c9.374,0,17,7.626,17,17S27.374-8,18-8S1-15.626,1-25S8.626-42,18-42 M18-43C8.059-43,0-34.941,0-25S8.059-7,18-7
				c9.941,0,18-8.059,18-18S27.941-43,18-43L18-43z"/>
		</g>
		<g>
			<path d="M18,1c9.374,0,17,7.626,17,17s-7.626,17-17,17S1,27.374,1,18S8.626,1,18,1 M18,0C8.059,0,0,8.059,0,18
				c0,9.941,8.059,18,18,18c9.941,0,18-8.059,18-18C36,8.059,27.941,0,18,0L18,0z"/>
		</g>
	</g>
</g>
<g>
	<g>
		<path fill="#CCCCCC" stroke="#CCCCCC" stroke-miterlimit="10" d="M-103.783,187.888c0,5.027-4.373,9.771-9.746,9.771
			c-5.373,0-9.746-4.359-9.746-9.734c0-5.373,4.49-9.738,9.865-9.738c0.108,0-0.116,0.021,0.442,0.022v3.183l7.262-4.188
			l-7.262-4.188v2.501c-0.559-0.003-0.334-0.014-0.442-0.014c-6.868,0-12.495,5.567-12.495,12.435c0,6.868,5.538,12.41,12.406,12.41
			s12.404-5.197,12.404-12.461H-103.783z"/>
		<g>
			<circle fill="#CCCCCC" stroke="#CCCCCC" stroke-miterlimit="10" cx="-113.529" cy="187.939" r="2.657"/>
		</g>
	</g>
	<g id="Arrow_27_1_">
	</g>
</g>
<g display="none">
	<path display="inline" d="M-86,2c9.374,0,17,7.626,17,17s-7.626,17-17,17s-17-7.626-17-17S-95.374,2-86,2 M-86,1
		c-9.941,0-18,8.059-18,18c0,9.941,8.059,18,18,18s18-8.059,18-18C-68,9.059-76.059,1-86,1L-86,1z"/>
</g>
<g>
	<g>
		<g>
			<g>
				<path fill="#CCCCCC" d="M74.625,199.701c-0.262,0-0.52-0.117-0.71-0.322c-0.19-0.203-0.258-0.43-0.282-0.594
					c-0.208-0.082-0.558-0.223-0.732-0.287c-0.051-0.02-0.09-0.027-0.119-0.037c-0.211-0.055-0.272-0.115-0.605-0.482
					c-0.418-0.459-11.592-11.637-11.705-11.75l-0.199-0.199l1.724-1.717l11.543,11.549c0.157,0.113,0.782,0.596,0.913,0.916
					c0.085,0.209,0.189,0.531,0.27,0.771c0.016,0.055,0.032,0.104,0.047,0.145c0.194,0.039,0.459,0.119,0.646,0.332
					c0.332,0.385,0.291,0.982-0.094,1.365C75.117,199.594,74.876,199.701,74.625,199.701z M61.07,186.029
					c1.562,1.562,11.121,11.131,11.521,11.57c0.104,0.113,0.26,0.285,0.299,0.309c0.074,0.02,0.129,0.033,0.205,0.061
					c0.264,0.1,0.916,0.361,0.916,0.361l0.197,0.078l-0.023,0.215c0,0.002-0.014,0.205,0.142,0.369c0.167,0.18,0.399,0.193,0.595,0
					c0.196-0.197,0.188-0.457,0.066-0.598c-0.1-0.113-0.317-0.146-0.41-0.162c-0.072-0.01-0.154-0.023-0.225-0.098
					c-0.051-0.047-0.055-0.061-0.17-0.41c-0.074-0.229-0.175-0.535-0.256-0.736c-0.044-0.105-0.398-0.434-0.757-0.701l-11.177-11.18
					L61.07,186.029z"/>
			</g>
			<g>
				<path fill="#CCCCCC" d="M59.936,186.104c0,0,0.289,0.152,0.399,0.164c0.065,0.01,0.16,0.016,0.276-0.086
					c0.119-0.105,1.549-1.543,1.549-1.543s0.111-0.164,0.117-0.225c0.009-0.117-0.168-0.42-0.195-0.447
					S59.936,186.104,59.936,186.104z"/>
			</g>
			<g>
				<path fill="#CCCCCC" d="M60.032,186.406l-3.817-3.879l0.137-0.191c0.594-0.838,1.924-1.93,1.98-1.977l0.197-0.162l3.853,3.869
					L60.032,186.406z M56.954,182.475l3.082,3.131l1.548-1.541l-3.091-3.104C58.145,181.26,57.404,181.912,56.954,182.475z"/>
			</g>
			<g>
				<path fill="#CCCCCC" d="M56.562,182.904l-0.211-0.209c-0.397-0.393-0.883-0.875-0.936-0.943c-0.139-0.172-0.158-0.5,0.051-0.721
					c0.176-0.186,1.438-1.445,1.643-1.59c0.089-0.062,0.195-0.131,0.336-0.131c0.175,0,0.301,0.105,0.38,0.186l1.079,1.084
					l-0.231,0.197c-0.004,0.004-0.471,0.402-0.938,0.867c-0.471,0.469-0.969,1.031-0.973,1.037L56.562,182.904z M57.434,179.902
					c-0.148,0.111-1.287,1.23-1.557,1.516c0.027,0.037,0.355,0.367,0.659,0.668c0.192-0.211,0.498-0.541,0.798-0.84
					c0.279-0.279,0.557-0.531,0.742-0.697L57.434,179.902z"/>
			</g>
		</g>
		<g>
			<path fill="#CCCCCC" d="M73.904,198.592l0.652-0.65c0,0,0.446,0.059,0.572,0.201c0.128,0.146,0.438,0.604,0.034,1.004
				c-0.324,0.32-0.701,0.379-0.998,0.084C73.919,198.982,73.875,198.693,73.904,198.592z"/>
		</g>
	</g>
	<g>
		<g>
			<path fill="#CCCCCC" d="M77.682,198.67l-0.47-0.439c-0.015-0.014-1.47-1.373-1.672-1.549c-0.269-0.232-0.502-0.629-0.759-1.279
				c-0.227-0.578-6.389-14.566-6.45-14.709l-0.113-0.256l2.22-0.99l6.674,14.902c0.08,0.168,0.506,1.051,0.55,1.369
				c0.04,0.303,0.026,2.105,0.024,2.309L77.682,198.67z M68.961,180.723c0.87,1.977,6.129,13.92,6.346,14.473
				c0.215,0.547,0.412,0.895,0.604,1.061c0.134,0.117,0.763,0.703,1.214,1.121c0.001-0.686-0.004-1.434-0.022-1.582
				c-0.021-0.15-0.276-0.744-0.502-1.207l-6.445-14.398L68.961,180.723z"/>
		</g>
		<g>
			<path fill="#CCCCCC" d="M67.875,180.387c0,0,0.218,0.246,0.316,0.297c0.058,0.031,0.143,0.072,0.289,0.018
				c0.147-0.057,1.998-0.891,1.998-0.891s0.162-0.109,0.188-0.166c0.052-0.105-0.007-0.455-0.023-0.488
				C70.628,179.121,67.875,180.387,67.875,180.387z"/>
		</g>
	</g>
	<g>
		<polygon fill="#CCCCCC" points="77.346,197.957 75.623,196.664 77.6,195.809 		"/>
	</g>
	<g>
		<path fill="#CCCCCC" d="M67.866,180.879l-2.269-4.947l0.193-0.135c0.843-0.586,2.464-1.16,2.533-1.186l0.242-0.086l2.306,4.951
			L67.866,180.879z M66.311,176.133l1.832,3.996l1.979-0.924l-1.851-3.973C67.841,175.395,66.926,175.758,66.311,176.133z"/>
	</g>
	<g>
		<path fill="#CCCCCC" d="M65.794,176.404l-0.128-0.27c-0.239-0.504-0.529-1.121-0.557-1.203c-0.071-0.217,0.019-0.523,0.293-0.662
			s1.849-0.871,2.082-0.938c0.078-0.021,0.142-0.033,0.211-0.033c0.291,0,0.406,0.248,0.445,0.33l0.646,1.383l-0.285,0.107
			c-0.006,0.004-0.581,0.219-1.178,0.498c-0.604,0.281-1.264,0.641-1.27,0.645L65.794,176.404z M67.635,173.877
			c-0.175,0.055-1.627,0.721-1.978,0.896c0.01,0.039,0.194,0.434,0.393,0.852c0.252-0.133,0.652-0.338,1.037-0.518
			c0.358-0.168,0.704-0.311,0.935-0.402L67.635,173.877z"/>
	</g>
</g>
<g>
	<g>
		<g>
			<g>
				<path fill="#0071BB" d="M74.625,163.701c-0.262,0-0.52-0.117-0.711-0.322c-0.189-0.203-0.258-0.43-0.281-0.594
					c-0.209-0.082-0.559-0.223-0.733-0.287c-0.051-0.02-0.089-0.027-0.118-0.037c-0.212-0.055-0.273-0.115-0.605-0.482
					c-0.418-0.459-11.592-11.637-11.705-11.75l-0.2-0.199l1.724-1.717l11.543,11.549c0.157,0.113,0.783,0.596,0.914,0.916
					c0.084,0.209,0.189,0.531,0.269,0.771c0.017,0.055,0.032,0.104,0.047,0.145c0.194,0.039,0.46,0.119,0.647,0.332
					c0.332,0.385,0.291,0.982-0.095,1.365C75.117,163.594,74.875,163.701,74.625,163.701z M61.069,150.029
					c1.562,1.562,11.122,11.131,11.522,11.57c0.104,0.113,0.26,0.285,0.299,0.309c0.074,0.02,0.128,0.033,0.204,0.061
					c0.264,0.1,0.916,0.361,0.916,0.361l0.198,0.078l-0.023,0.215c0,0.002-0.014,0.205,0.141,0.369c0.168,0.18,0.399,0.193,0.596,0
					c0.195-0.197,0.188-0.457,0.065-0.598c-0.099-0.113-0.317-0.146-0.409-0.162c-0.072-0.01-0.154-0.023-0.226-0.098
					c-0.05-0.047-0.054-0.061-0.169-0.41c-0.074-0.229-0.176-0.535-0.256-0.736c-0.045-0.105-0.398-0.434-0.758-0.701l-11.176-11.18
					L61.069,150.029z"/>
			</g>
			<g>
				<path fill="#0074B7" d="M59.935,150.104c0,0,0.29,0.152,0.399,0.164c0.065,0.01,0.16,0.016,0.277-0.086
					c0.119-0.105,1.549-1.543,1.549-1.543s0.111-0.164,0.117-0.225c0.008-0.117-0.169-0.42-0.195-0.447
					C62.055,147.939,59.935,150.104,59.935,150.104z"/>
			</g>
			<g>
				<path fill="#0071BB" d="M60.031,150.406l-3.816-3.879l0.136-0.191c0.594-0.838,1.924-1.93,1.981-1.977l0.197-0.162l3.852,3.869
					L60.031,150.406z M56.953,146.475l3.082,3.131l1.549-1.541l-3.092-3.104C58.144,145.26,57.404,145.912,56.953,146.475z"/>
			</g>
			<g>
				<path fill="#0071BB" d="M56.562,146.904l-0.211-0.209c-0.397-0.393-0.882-0.875-0.935-0.943c-0.139-0.172-0.158-0.5,0.051-0.721
					c0.175-0.186,1.438-1.445,1.643-1.59c0.088-0.062,0.195-0.131,0.336-0.131c0.174,0,0.301,0.105,0.379,0.186l1.08,1.084
					l-0.232,0.197c-0.004,0.004-0.471,0.402-0.938,0.867c-0.47,0.469-0.968,1.031-0.973,1.037L56.562,146.904z M57.433,143.902
					c-0.147,0.111-1.286,1.23-1.556,1.516c0.026,0.037,0.355,0.367,0.658,0.668c0.192-0.211,0.498-0.541,0.799-0.84
					c0.279-0.279,0.557-0.531,0.742-0.697L57.433,143.902z"/>
			</g>
		</g>
		<g>
			<path fill="#0074B7" d="M73.904,162.592l0.652-0.65c0,0,0.445,0.059,0.572,0.201c0.127,0.146,0.437,0.604,0.033,1.004
				c-0.324,0.32-0.701,0.379-0.998,0.084C73.918,162.982,73.875,162.693,73.904,162.592z"/>
		</g>
	</g>
	<g>
		<g>
			<path fill="#0071BB" d="M77.681,162.67l-0.47-0.439c-0.015-0.014-1.469-1.373-1.672-1.549c-0.268-0.232-0.502-0.629-0.758-1.279
				c-0.228-0.578-6.389-14.566-6.451-14.709l-0.113-0.256l2.221-0.99l6.674,14.904c0.08,0.168,0.506,1.051,0.549,1.369
				c0.041,0.303,0.027,2.104,0.025,2.309L77.681,162.67z M68.961,144.723c0.869,1.977,6.129,13.92,6.345,14.473
				c0.215,0.547,0.413,0.895,0.604,1.061c0.133,0.117,0.762,0.703,1.213,1.121c0.002-0.686-0.004-1.434-0.022-1.582
				c-0.021-0.15-0.276-0.744-0.501-1.207l-6.447-14.398L68.961,144.723z"/>
		</g>
		<g>
			<path fill="#0074B7" d="M67.875,144.387c0,0,0.217,0.246,0.315,0.297c0.058,0.031,0.144,0.072,0.29,0.018
				c0.146-0.057,1.997-0.891,1.997-0.891s0.162-0.109,0.188-0.166c0.051-0.105-0.008-0.455-0.024-0.488
				C70.627,143.121,67.875,144.387,67.875,144.387z"/>
		</g>
	</g>
	<g>
		<polygon fill="#0074B7" points="77.346,161.957 75.623,160.664 77.6,159.809 		"/>
	</g>
	<g>
		<path fill="#0071BB" d="M67.865,144.879l-2.269-4.947l0.194-0.135c0.842-0.586,2.463-1.16,2.533-1.186l0.241-0.086l2.306,4.951
			L67.865,144.879z M66.31,140.133l1.832,3.996l1.979-0.924l-1.85-3.973C67.84,139.395,66.926,139.758,66.31,140.133z"/>
	</g>
	<g>
		<path fill="#0071BB" d="M65.793,140.404l-0.127-0.27c-0.24-0.504-0.53-1.121-0.558-1.203c-0.071-0.217,0.019-0.523,0.293-0.662
			s1.849-0.871,2.083-0.938c0.078-0.021,0.141-0.033,0.21-0.033c0.292,0,0.407,0.248,0.445,0.33l0.647,1.383l-0.285,0.107
			c-0.006,0.004-0.582,0.219-1.178,0.498c-0.604,0.281-1.264,0.641-1.271,0.645L65.793,140.404z M67.635,137.877
			c-0.176,0.055-1.627,0.721-1.979,0.896c0.01,0.039,0.194,0.434,0.393,0.852c0.252-0.133,0.652-0.338,1.037-0.518
			c0.358-0.168,0.705-0.311,0.935-0.402L67.635,137.877z"/>
	</g>
</g>
<g>
	<path fill="#B8B8B8" d="M105.417,175.32c-0.202-0.152-0.573-0.276-0.826-0.276h-4.182c-0.253,0-0.625,0.124-0.826,0.276
		l-1.815,1.371c-0.203,0.15-0.203,0.399,0,0.553l1.815,1.369c0.201,0.152,0.573,0.277,0.826,0.277h4.182
		c0.253,0,0.624-0.125,0.826-0.277l1.815-1.369c0.203-0.152,0.203-0.401,0-0.553L105.417,175.32z M104.729,177.912
		c-0.213,0.138-0.594,0.25-0.847,0.25h-2.765c-0.254,0-0.633-0.112-0.846-0.25l-1.069-0.695c-0.214-0.137-0.214-0.361,0-0.5
		l1.069-0.693c0.213-0.139,0.592-0.25,0.846-0.25h2.765c0.253,0,0.634,0.111,0.847,0.25l1.069,0.693c0.212,0.139,0.212,0.363,0,0.5
		L104.729,177.912z"/>
	<path fill="#B8B8B8" d="M118.492,195.995c0,1.078-0.883,1.961-1.961,1.961H88.469c-1.078,0-1.961-0.883-1.961-1.961v-17.401
		c0-1.078,0.883-1.961,1.961-1.961h28.062c1.078,0,1.961,0.883,1.961,1.961V195.995z"/>
	<path fill="#D6D6D6" d="M116.988,195.628c0,0.5-0.408,0.909-0.908,0.909H88.919c-0.499,0-0.907-0.409-0.907-0.909v-16.667
		c0-0.5,0.408-0.91,0.907-0.91h27.161c0.5,0,0.908,0.41,0.908,0.91V195.628z"/>
	<rect x="91.814" y="182.488" fill="#B8B8B8" width="21.369" height="9.611"/>
</g>
<g>
	<g>
		<g>
			<g>
				<path fill="#376CB3" d="M105.417,139.32c-0.202-0.152-0.573-0.276-0.826-0.276h-4.181c-0.253,0-0.625,0.124-0.827,0.276
					l-1.815,1.371c-0.203,0.15-0.203,0.399,0,0.553l1.815,1.369c0.202,0.152,0.574,0.277,0.827,0.277h4.181
					c0.253,0,0.624-0.125,0.826-0.277l1.815-1.369c0.203-0.152,0.203-0.401,0-0.553L105.417,139.32z M104.729,141.912
					c-0.213,0.138-0.594,0.25-0.847,0.25h-2.764c-0.253,0-0.634-0.112-0.845-0.25l-1.071-0.695c-0.212-0.137-0.212-0.361,0-0.5
					l1.071-0.693c0.211-0.139,0.592-0.25,0.845-0.25h2.764c0.253,0,0.634,0.111,0.847,0.25l1.069,0.693
					c0.212,0.139,0.212,0.363,0,0.5L104.729,141.912z"/>
			</g>
		</g>
		<g>
			<g>
				<path d="M104.591,142.916h-4.181c-0.258,0-0.637-0.126-0.842-0.281l-1.816-1.369c-0.105-0.08-0.162-0.186-0.162-0.299
					c0-0.111,0.059-0.218,0.162-0.297l1.816-1.369c0.205-0.156,0.584-0.281,0.842-0.281h4.181c0.259,0,0.636,0.125,0.843,0.281
					l1.815,1.369c0.104,0.079,0.161,0.186,0.161,0.297c0,0.113-0.059,0.219-0.161,0.299l-1.815,1.369
					C105.227,142.79,104.85,142.916,104.591,142.916z M100.41,139.07c-0.249,0-0.612,0.121-0.811,0.271l-1.816,1.369
					c-0.092,0.067-0.141,0.16-0.141,0.256c0,0.099,0.049,0.188,0.141,0.257l1.816,1.37c0.198,0.149,0.562,0.271,0.811,0.271h4.181
					c0.249,0,0.612-0.122,0.812-0.271l1.815-1.37c0.091-0.067,0.142-0.158,0.142-0.257c0-0.096-0.051-0.188-0.142-0.256
					l-1.815-1.369c-0.198-0.149-0.562-0.271-0.812-0.271H100.41z M103.882,142.188h-2.764c-0.259,0-0.644-0.113-0.859-0.254
					l-1.071-0.695c-0.109-0.07-0.17-0.168-0.17-0.271c0-0.103,0.062-0.199,0.17-0.271l1.071-0.693
					c0.216-0.141,0.603-0.255,0.859-0.255h2.764c0.259,0,0.644,0.114,0.859,0.255l1.069,0.693c0.11,0.072,0.172,0.169,0.172,0.271
					c0,0.104-0.062,0.201-0.172,0.271l-1.069,0.695C104.525,142.074,104.141,142.188,103.882,142.188z M101.118,139.798
					c-0.25,0-0.623,0.11-0.832,0.246l-1.071,0.694c-0.095,0.062-0.146,0.143-0.146,0.229s0.052,0.168,0.146,0.229l1.071,0.695
					c0.209,0.135,0.582,0.245,0.832,0.245h2.764c0.25,0,0.622-0.11,0.831-0.245l1.071-0.695c0.095-0.062,0.147-0.144,0.147-0.229
					s-0.054-0.166-0.147-0.229l-1.071-0.694c-0.209-0.136-0.581-0.246-0.831-0.246H101.118z"/>
			</g>
		</g>
	</g>
	<g>
		<g>
			<path fill="#376CB3" d="M118.492,159.995c0,1.078-0.883,1.961-1.961,1.961H88.469c-1.078,0-1.961-0.883-1.961-1.961v-17.401
				c0-1.078,0.883-1.961,1.961-1.961h28.062c1.078,0,1.961,0.883,1.961,1.961V159.995z"/>
		</g>
		<g>
			<path d="M116.531,161.98H88.469c-0.529,0-1.027-0.207-1.402-0.584c-0.377-0.375-0.584-0.873-0.584-1.401v-17.401
				c0-0.529,0.209-1.027,0.584-1.402c0.375-0.377,0.873-0.584,1.402-0.584h28.062c0.527,0,1.025,0.207,1.402,0.582
				c0.377,0.377,0.584,0.875,0.584,1.403v17.401c0,0.527-0.207,1.025-0.584,1.402C117.559,161.773,117.061,161.98,116.531,161.98z
				 M88.469,140.658c-0.515,0-1,0.201-1.367,0.568c-0.367,0.366-0.568,0.852-0.568,1.366v17.401c0,0.515,0.201,1,0.568,1.365
				c0.366,0.367,0.853,0.568,1.367,0.568h28.062c0.515,0,1-0.201,1.365-0.568c0.367-0.365,0.568-0.852,0.568-1.365v-17.4
				c0-0.516-0.201-1-0.568-1.367c-0.365-0.367-0.852-0.567-1.365-0.567L88.469,140.658L88.469,140.658z"/>
		</g>
	</g>
	<g>
		<g>
			<path fill="#98ADD6" d="M116.988,159.628c0,0.5-0.408,0.909-0.908,0.909H88.919c-0.5,0-0.909-0.409-0.909-0.909v-16.667
				c0-0.5,0.409-0.91,0.909-0.91h27.161c0.5,0,0.908,0.41,0.908,0.91V159.628z"/>
		</g>
		<g>
			<path d="M116.08,160.562H88.919c-0.515,0-0.935-0.42-0.935-0.936v-16.666c0-0.516,0.42-0.936,0.935-0.936h27.161
				c0.516,0,0.936,0.42,0.936,0.936v16.667C117.016,160.145,116.596,160.562,116.08,160.562z M88.919,142.077
				c-0.487,0-0.883,0.396-0.883,0.884v16.667c0,0.487,0.396,0.884,0.883,0.884h27.161c0.486,0,0.884-0.396,0.884-0.884v-16.667
				c0-0.488-0.396-0.884-0.884-0.884H88.919z"/>
		</g>
	</g>
	<g>
		<rect x="91.814" y="146.488" fill="#376CB3" width="21.369" height="9.611"/>
		<path d="M113.21,156.125H91.79v-9.661h21.42V156.125z M91.841,156.073h21.318v-9.56H91.841V156.073z"/>
	</g>
</g>
<circle fill="none" stroke="#0071BB" stroke-miterlimit="10" cx="138.5" cy="150.5" r="13.926"/>
<polygon fill="#0071BB" points="146.811,150.5 133.42,140.34 133.42,160.66 "/>
<g>
	<circle fill="none" stroke="#CCCCCC" stroke-miterlimit="10" cx="138.5" cy="186.5" r="13.926"/>
	<polygon fill="#CCCCCC" points="146.811,186.5 133.42,176.34 133.42,196.66 	"/>
</g>
</svg>
