<?xml version="1.0" encoding="utf-8"?>
<!-- Generator: Adobe Illustrator 16.0.4, SVG Export Plug-In . SVG Version: 6.00 Build 0)  -->
<!DOCTYPE svg PUBLIC "-//W3C//DTD SVG 1.1//EN" "http://www.w3.org/Graphics/SVG/1.1/DTD/svg11.dtd">
<svg version="1.1" id="Layer_1" xmlns="http://www.w3.org/2000/svg" xmlns:xlink="http://www.w3.org/1999/xlink" x="0px" y="0px"
	 width="1736.36px" height="573px" viewBox="0 0 1736.36 573" enable-background="new 0 0 1736.36 573" xml:space="preserve">
<g>
	<polyline fill="#4c729a" points="1526.47,455.91 1547.04,455.91 1547.04,455.91 1547.05,457.28 1547.09,458.62 1547.15,459.94 
		1547.24,461.23 1547.37,462.49 1547.55,463.74 1547.77,464.95 1548.03,466.15 1548.35,467.31 1548.72,468.44 1549.15,469.54 
		1549.65,470.62 1550.22,471.67 1550.85,472.67 1551.56,473.66 1552.35,474.61 1553.14,475.47 1553.92,476.27 1554.69,477 
		1555.48,477.69 1556.27,478.31 1557.06,478.88 1557.89,479.39 1558.72,479.83 1559.59,480.23 1560.47,480.57 1561.39,480.85 
		1562.36,481.09 1563.34,481.26 1564.39,481.4 1565.47,481.47 1566.63,481.5 1567.48,481.49 1568.34,481.44 1569.21,481.38 
		1570.04,481.28 1570.88,481.15 1571.72,480.98 1572.54,480.78 1573.35,480.53 1574.16,480.24 1574.96,479.91 1575.75,479.53 
		1576.52,479.09 1577.3,478.62 1578.06,478.08 1578.81,477.49 1579.55,476.83 1580.26,476.13 1580.93,475.43 1581.53,474.71 
		1582.08,473.98 1582.59,473.25 1583.03,472.48 1583.44,471.72 1583.79,470.95 1584.12,470.17 1584.38,469.38 1584.59,468.58 
		1584.78,467.78 1584.9,466.97 1584.98,466.16 1585.04,465.35 1585.04,464.53 1585.02,463.63 1584.97,462.77 1584.89,461.93 
		1584.78,461.12 1584.66,460.32 1584.48,459.54 1584.28,458.77 1584.05,458.04 1583.78,457.32 1583.48,456.6 1583.15,455.93 
		1582.76,455.23 1582.33,454.58 1581.85,453.92 1581.33,453.27 1580.79,452.63 1580.18,452.01 1579.53,451.4 1578.84,450.81 
		1578.09,450.24 1577.31,449.67 1576.46,449.12 1575.55,448.57 1574.59,448.04 1573.56,447.5 1572.49,446.97 1571.35,446.45 
		1570.13,445.92 1568.85,445.39 1567.5,444.88 1566.07,444.34 1564.57,443.8 1562.16,442.93 1559.86,442.05 1557.65,441.18 
		1555.51,440.28 1553.49,439.39 1551.57,438.5 1549.77,437.59 1548.04,436.7 1546.45,435.79 1544.94,434.88 1543.56,433.98 
		1542.28,433.08 1541.14,432.17 1540.08,431.27 1539.16,430.38 1538.35,429.48 1537.62,428.55 1536.89,427.54 1536.23,426.45 
		1535.57,425.32 1534.97,424.11 1534.4,422.85 1533.86,421.54 1533.39,420.19 1532.96,418.79 1532.58,417.38 1532.24,415.93 
		1531.96,414.46 1531.75,412.96 1531.58,411.47 1531.49,409.96 1531.45,408.46 1531.49,406.75 1531.65,405.05 1531.89,403.35 
		1532.21,401.65 1532.66,399.96 1533.16,398.29 1533.77,396.65 1534.44,395.02 1535.19,393.44 1536.04,391.88 1536.94,390.37 
		1537.92,388.91 1538.96,387.5 1540.08,386.15 1541.25,384.87 1542.46,383.64 1543.76,382.49 1545.12,381.41 1546.53,380.37 
		1548,379.41 1549.54,378.5 1551.1,377.67 1552.73,376.91 1554.37,376.22 1556.08,375.61 1557.79,375.06 1559.53,374.6 
		1561.29,374.22 1563.06,373.92 1564.86,373.7 1566.64,373.57 1568.42,373.52 1570.32,373.56 1572.18,373.68 1574.04,373.87 
		1575.86,374.14 1577.66,374.48 1579.43,374.89 1581.15,375.37 1582.82,375.92 1584.44,376.53 1586.01,377.2 1587.53,377.94 
		1588.98,378.74 1590.36,379.59 1591.67,380.51 1592.93,381.48 1594.08,382.5 1595.56,383.99 1596.92,385.52 1598.14,387.09 
		1599.25,388.69 1600.22,390.34 1601.1,392.02 1601.86,393.73 1602.52,395.48 1603.1,397.25 1603.56,399.06 1603.96,400.87 
		1604.26,402.72 1604.48,404.6 1604.65,406.49 1604.76,410.33 1583.64,410.33 1583.64,410.33 1583.64,409.3 1583.59,408.27 
		1583.5,407.25 1583.35,406.23 1583.18,405.22 1582.95,404.25 1582.68,403.3 1582.39,402.37 1582.03,401.48 1581.64,400.62 
		1581.2,399.81 1580.72,399.04 1580.2,398.33 1579.64,397.66 1579.04,397.06 1578.4,396.52 1577.74,396.04 1577.08,395.61 
		1576.42,395.21 1575.76,394.84 1575.08,394.52 1574.41,394.24 1573.74,393.98 1573.06,393.77 1572.38,393.58 1571.67,393.43 
		1571,393.3 1570.31,393.2 1569.59,393.12 1568.88,393.06 1568.18,393.03 1567.47,393.02 1566.74,393.04 1565.99,393.1 
		1565.24,393.19 1564.49,393.31 1563.73,393.47 1562.98,393.66 1562.24,393.88 1561.53,394.14 1560.82,394.43 1560.12,394.75 
		1559.46,395.1 1558.83,395.48 1558.22,395.88 1557.66,396.31 1557.14,396.77 1556.67,397.26 1556.24,397.77 1555.82,398.28 
		1555.41,398.79 1555.02,399.33 1554.65,399.87 1554.3,400.44 1553.98,401.02 1553.71,401.63 1553.45,402.26 1553.21,402.92 
		1552.99,403.62 1552.84,404.34 1552.7,405.1 1552.6,405.91 1552.55,406.75 1552.53,407.63 1552.53,408.26 1552.55,408.86 
		1552.57,409.42 1552.62,409.94 1552.68,410.45 1552.74,410.93 1552.82,411.4 1552.94,411.84 1553.05,412.27 1553.19,412.7 
		1553.34,413.12 1553.49,413.54 1553.7,413.95 1553.89,414.37 1554.12,414.79 1554.37,415.22 1554.61,415.65 1554.88,416.06 
		1555.14,416.44 1555.41,416.8 1555.69,417.15 1555.97,417.48 1556.28,417.8 1556.62,418.12 1556.96,418.44 1557.33,418.74 
		1557.73,419.05 1558.15,419.37 1558.62,419.68 1559.11,420.01 1559.64,420.34 1560.21,420.69 1560.75,421.01 1561.3,421.33 
		1561.86,421.64 1562.45,421.94 1563.05,422.23 1563.68,422.52 1564.33,422.82 1565,423.1 1565.72,423.39 1566.46,423.67 
		1567.23,423.95 1568.06,424.24 1568.92,424.53 1569.83,424.81 1570.78,425.12 1571.79,425.41 1572.81,425.72 1573.79,426 
		1574.73,426.29 1575.67,426.55 1576.56,426.82 1577.4,427.07 1578.23,427.31 1579,427.56 1579.74,427.78 1580.43,427.99 
		1581.07,428.2 1581.66,428.39 1582.2,428.58 1582.71,428.75 1583.15,428.91 1583.52,429.07 1584.87,429.66 1586.24,430.28 
		1587.54,430.95 1588.81,431.64 1590.06,432.36 1591.26,433.13 1592.42,433.91 1593.55,434.71 1594.62,435.55 1595.66,436.41 
		1596.62,437.28 1597.54,438.17 1598.43,439.1 1599.22,440.03 1599.97,440.97 1600.66,441.92 1601.3,442.93 1601.92,444 
		1602.5,445.13 1603.05,446.31 1603.56,447.55 1604.05,448.85 1604.48,450.18 1604.87,451.54 1605.25,452.94 1605.56,454.38 
		1605.84,455.83 1606.06,457.31 1606.25,458.79 1606.38,460.28 1606.45,461.78 1606.5,463.27 1606.43,465.14 1606.29,467 
		1606.03,468.85 1605.69,470.69 1605.26,472.51 1604.74,474.3 1604.13,476.07 1603.42,477.79 1602.64,479.48 1601.77,481.12 
		1600.85,482.72 1599.83,484.25 1598.72,485.73 1597.58,487.14 1596.34,488.48 1595.04,489.75 1593.69,490.94 1592.24,492.07 
		1590.71,493.13 1589.12,494.14 1587.46,495.06 1585.74,495.93 1583.97,496.72 1582.16,497.42 1580.27,498.07 1578.39,498.63 
		1576.43,499.11 1574.47,499.51 1572.48,499.82 1570.46,500.04 1568.42,500.18 1566.39,500.23 1564.31,500.18 1562.23,500.03 
		1560.16,499.78 1558.13,499.43 1556.1,498.98 1554.12,498.45 1552.16,497.83 1550.27,497.11 1548.43,496.32 1546.65,495.44 
		1544.93,494.47 1543.28,493.44 1541.71,492.32 1540.25,491.12 1538.86,489.85 1537.59,488.52 1535.89,486.54 1534.36,484.56 
		1533.01,482.6 1531.81,480.65 1530.77,478.7 1529.86,476.75 1529.09,474.79 1528.42,472.81 1527.88,470.82 1527.45,468.79 
		1527.1,466.75 1526.84,464.67 1526.66,462.56 1526.53,460.39 1526.47,455.91 	"/>
	<polygon fill="#4c729a" points="1502.78,395.63 1524.84,395.63 1524.84,374.98 1502.78,374.98 1502.78,333.68 1481.09,333.68 
		1481.09,497.46 1502.78,497.46 	"/>
	<path fill="#4c729a" d="M1383.45,384.17v-9.19h-20.66v122.48h21.68v-65.5l0.01-1.17l0.06-1.52l0.05-1.44l0.06-1.36l0.08-1.29
		l0.08-1.22l0.08-1.14l0.09-1.08l0.11-1.02l0.12-0.95l0.11-0.89l0.15-0.83l0.12-0.78l0.14-0.75l0.15-0.71l0.16-0.68l0.16-0.67
		l0.16-0.63l0.18-0.62l0.19-0.61l0.19-0.58l0.23-0.58l0.23-0.57l0.24-0.57l0.26-0.56l0.27-0.56l0.31-0.57l0.32-0.57l0.34-0.59
		l0.56-0.92l0.55-0.85l0.56-0.8l0.55-0.76l0.57-0.69l0.58-0.67l0.58-0.63l0.63-0.6l0.63-0.57l0.68-0.55l0.71-0.53l0.75-0.52
		l0.79-0.5l0.83-0.5l0.88-0.5l0.95-0.51l0.94-0.48l0.88-0.45l0.83-0.41l0.82-0.38l0.79-0.33l0.8-0.31l0.82-0.27l0.85-0.24l0.9-0.21
		l0.95-0.17l1.05-0.15l1.13-0.12l1.24-0.09l1.37-0.06l1.52-0.04l1.65-0.01l1.75,0.02l1.71,0.07l1.68,0.11l1.64,0.17l1.61,0.22
		l1.56,0.29l1.54,0.34l1.48,0.42l1.44,0.49l1.38,0.56l1.34,0.65l1.28,0.73l1.22,0.82l1.16,0.91l1.11,1.01l1.03,1.11l0.97,1.18
		l0.88,1.22l0.8,1.27l0.73,1.33l0.68,1.39l0.59,1.46l0.51,1.54l0.48,1.61l0.41,1.7l0.34,1.81l0.27,1.9l0.23,2l0.17,2.13l0.13,2.25
		l0.06,2.36l0.02,0.24v70.51h21.66c0,0,0-76.81-0.02-76.86l-0.09-1.61l-0.13-1.54l-0.12-1.48l-0.15-1.42l-0.17-1.35l-0.16-1.29
		l-0.2-1.22l-0.21-1.14l-0.22-1.08l-0.23-1.06l-0.27-1.08l-0.29-1.08l-0.29-1.08l-0.36-1.07l-0.36-1.08l-0.37-1.07l-0.39-1.05
		l-0.42-1.03l-0.44-1.01l-0.46-0.99l-0.46-0.96l-0.47-0.92l-0.49-0.89l-0.5-0.84l-0.51-0.8l-0.77-1.1l-0.83-1.1l-0.89-1.09
		l-0.96-1.08l-1-1.07l-1.06-1.05l-1.09-1.02l-1.13-0.99l-1.18-0.96l-1.2-0.92l-1.22-0.88l-1.24-0.84l-1.25-0.79l-1.28-0.74
		l-1.27-0.68l-1.29-0.63l-1.29-0.58l-1.35-0.55l-1.39-0.52l-1.46-0.49l-1.48-0.45l-1.53-0.43l-1.55-0.38l-1.57-0.35l-1.63-0.31
		l-1.61-0.27l-1.63-0.24l-1.64-0.19l-1.65-0.15l-1.64-0.12l-1.66-0.06l-1.63-0.03l-1.49,0.02l-1.47,0.05l-1.5,0.09l-1.5,0.12
		l-1.49,0.16l-1.48,0.18l-1.45,0.22l-1.46,0.25l-1.43,0.28l-1.42,0.31l-1.37,0.33l-1.35,0.37l-1.3,0.4l-1.27,0.41L1397,376
		l-1.19,0.47l-1.08,0.44l-0.95,0.39l-0.84,0.35l-0.75,0.31l-0.68,0.3l-0.62,0.29l-0.56,0.29l-0.55,0.3l-0.54,0.33l-0.54,0.36
		l-0.55,0.4l-0.61,0.46l-0.66,0.53l-0.73,0.61l-0.82,0.7L1383.45,384.17z"/>
	<path fill="#4c729a" d="M1326.8,470.77l-1.99,1.47l-2.05,1.4l-2.13,1.34l-2.16,1.25l-2.22,1.16l-2.21,1.06l-2.26,0.94l-2.26,0.8
		l-2.26,0.68l-2.23,0.5l-2.22,0.35l-2.16,0.17l-2.1-0.02l-1.47-0.05l-1.46-0.09l-1.48-0.13l-1.47-0.2l-1.49-0.24l-1.51-0.32
		l-1.53-0.39l-1.55-0.47l-1.57-0.57l-1.64-0.65l-1.64-0.75l-1.7-0.88l-1.75-0.98l-1.78-1.12l-1.85-1.24l-1.99-1.44l79.93-70.67
		l-2.05-2.4l-2.42-2.62l-2.59-2.62l-2.78-2.59l-2.96-2.53l-3.13-2.46l-3.32-2.35l-3.48-2.2l-3.63-2.05l-3.83-1.85l-3.97-1.64
		l-4.14-1.39l-4.28-1.12l-4.44-0.82l-4.6-0.5l-3.09-0.12l-3.08,0.04l-3.09,0.21l-3.09,0.38l-3.08,0.55l-3.06,0.71l-3.04,0.87
		l-3.01,1.02l-2.98,1.18l-2.92,1.34l-2.87,1.49l-2.81,1.64l-2.74,1.78l-2.67,1.93l-2.57,2.07l-2.49,2.21l-2.44,2.38l-2.3,2.48
		l-2.19,2.58l-2.07,2.66l-1.92,2.74l-1.8,2.83l-1.66,2.86l-1.52,2.93l-1.36,2.99l-1.22,3.02l-1.05,3.04l-0.9,3.08l-0.72,3.09
		l-0.57,3.1l-0.39,3.09l-0.22,3.07l-0.05,3.07l0.12,3.07l0.29,3.08l0.45,3.06l0.59,3.06l0.76,3.03l0.91,3l1.06,2.96l1.22,2.93
		l1.35,2.88l1.5,2.83l1.65,2.76l1.78,2.71l1.92,2.63l2.05,2.54l2.2,2.47l2.22,2.25l2.34,2.15l2.44,2.04l2.56,1.92l2.65,1.8
		l2.74,1.68l2.81,1.54l2.9,1.41l2.95,1.28l3.01,1.14l3.06,1l3.1,0.84l3.13,0.7l3.13,0.54l3.17,0.37l3.18,0.21l2.31,0.03l2.35-0.07
		l2.41-0.17l2.42-0.26l2.44-0.36l2.46-0.43l2.45-0.52l2.44-0.6l2.41-0.65l2.37-0.73l2.33-0.78l2.26-0.83l2.21-0.88l2.14-0.92
		l2.04-0.97v-26.63l-1.54,1.3L1326.8,470.77z M1258.82,455.64l-0.95-1.82l-0.83-1.76l-0.73-1.7l-0.63-1.65l-0.52-1.6l-0.43-1.57
		l-0.34-1.53l-0.26-1.51l-0.21-1.49l-0.13-1.49l-0.07-1.49l-0.02-1.47l0.02-1.51l0.06-1.54l0.1-1.54l0.16-1.82l0.24-1.78l0.33-1.72
		l0.4-1.67l0.48-1.64l0.57-1.58l0.67-1.56l0.74-1.52l0.85-1.51l0.92-1.48l1.03-1.47l1.11-1.46l1.23-1.46l1.31-1.44l1.41-1.46
		l1.54-1.46l1.7-1.53l1.69-1.42l1.72-1.32l1.73-1.21l1.71-1.11l1.72-1.01l1.69-0.91l1.67-0.81l1.67-0.71l1.65-0.6l1.61-0.52
		l1.59-0.42l1.53-0.31l1.5-0.22l1.47-0.12l1.41-0.04l1.85,0.04l1.73,0.05l1.63,0.09l1.56,0.14l1.5,0.17l1.45,0.24l1.43,0.29
		l1.44,0.36l1.45,0.45l1.48,0.53l1.52,0.61l1.61,0.71l1.7,0.83l1.79,0.93l1.93,1.06l2.07,1.17L1258.82,455.64z"/>
	<polygon fill="#4c729a" points="1043.4,497.46 1065.07,497.46 1065.07,436.74 1065.07,435.08 1065.09,433.49 1065.11,431.99 
		1065.13,430.57 1065.16,429.2 1065.19,427.93 1065.24,426.72 1065.3,425.57 1065.35,424.49 1065.4,423.45 1065.47,422.47 
		1065.54,421.56 1065.6,420.69 1065.68,419.86 1065.75,419.08 1065.83,418.36 1065.9,417.63 1065.99,416.9 1066.07,416.17 
		1066.16,415.44 1066.25,414.71 1066.36,413.99 1066.48,413.27 1066.62,412.56 1066.75,411.85 1066.93,411.16 1067.12,410.48 
		1067.33,409.81 1067.56,409.15 1067.82,408.52 1068.11,407.91 1068.59,406.96 1069.08,406.07 1069.58,405.22 1070.09,404.42 
		1070.61,403.66 1071.13,402.95 1071.69,402.25 1072.27,401.6 1072.87,400.97 1073.51,400.36 1074.17,399.78 1074.88,399.22 
		1075.62,398.67 1076.4,398.13 1077.23,397.61 1078.12,397.09 1079.04,396.58 1079.97,396.11 1080.91,395.67 1081.84,395.27 
		1082.79,394.89 1083.76,394.56 1084.73,394.26 1085.72,393.98 1086.73,393.75 1087.77,393.54 1088.83,393.37 1089.9,393.23 
		1091.01,393.12 1092.16,393.04 1093.33,393 1094.53,392.98 1096.48,393.02 1098.29,393.15 1099.99,393.35 1101.57,393.62 
		1103.02,393.98 1104.41,394.43 1105.7,394.94 1106.92,395.52 1108.07,396.19 1109.18,396.92 1110.22,397.73 1111.25,398.61 
		1112.24,399.56 1113.21,400.58 1114.18,401.67 1115.15,402.83 1116.09,404.03 1116.96,405.27 1117.76,406.56 1118.48,407.88 
		1119.14,409.27 1119.74,410.71 1120.25,412.21 1120.71,413.79 1121.11,415.46 1121.46,417.2 1121.75,419.05 1121.97,421 
		1122.15,423.06 1122.26,425.23 1122.33,427.55 1122.32,429.98 1122.32,497.46 1144.01,497.46 1144.01,429.98 1144.05,428.7 
		1144.09,427.34 1144.15,426.05 1144.23,424.82 1144.3,423.67 1144.4,422.59 1144.49,421.57 1144.61,420.61 1144.72,419.71 
		1144.85,418.88 1144.98,418.09 1145.12,417.35 1145.27,416.65 1145.4,415.98 1145.55,415.34 1145.7,414.72 1145.86,414.12 
		1146.03,413.55 1146.21,412.99 1146.39,412.43 1146.59,411.9 1146.81,411.37 1147.04,410.82 1147.29,410.27 1147.56,409.72 
		1147.85,409.15 1148.16,408.57 1148.68,407.65 1149.17,406.78 1149.67,405.95 1150.15,405.16 1150.64,404.41 1151.13,403.7 
		1151.65,403.03 1152.17,402.38 1152.71,401.77 1153.28,401.17 1153.9,400.6 1154.55,400.04 1155.26,399.51 1156.03,398.98 
		1156.83,398.46 1157.7,397.95 1158.61,397.47 1159.49,397 1160.36,396.57 1161.22,396.15 1162.08,395.78 1162.93,395.43 
		1163.8,395.11 1164.68,394.82 1165.57,394.57 1166.48,394.35 1167.43,394.17 1168.39,394.02 1169.39,393.89 1170.44,393.82 
		1171.53,393.78 1172.67,393.78 1173.87,393.83 1175.17,393.93 1176.51,394.09 1177.89,394.31 1179.33,394.59 1180.78,394.95 
		1182.25,395.37 1183.71,395.86 1185.15,396.42 1186.57,397.08 1187.94,397.79 1189.25,398.61 1190.51,399.51 1191.68,400.49 
		1192.75,401.57 1193.73,402.74 1194.6,403.99 1195.38,405.29 1196.1,406.68 1196.74,408.13 1197.31,409.67 1197.8,411.28 
		1198.25,412.98 1198.64,414.79 1198.97,416.68 1199.25,418.69 1199.49,420.82 1199.68,423.05 1199.84,425.42 1199.97,427.92 
		1200.06,430.55 1200.14,433.32 1200.14,497.46 1221.8,497.46 1221.8,433.32 1221.77,428.81 1221.55,425.13 1221.24,421.55 
		1220.83,418.06 1220.34,414.66 1219.74,411.39 1219.08,408.24 1218.32,405.21 1217.48,402.32 1216.58,399.58 1215.59,397 
		1214.52,394.59 1213.4,392.34 1212.2,390.27 1210.93,388.4 1209.55,386.67 1208.01,385.01 1206.31,383.44 1204.44,381.97 
		1202.46,380.58 1200.34,379.29 1198.12,378.1 1195.76,377.02 1193.34,376.05 1190.8,375.19 1188.22,374.46 1185.54,373.84 
		1182.82,373.36 1180.04,373.01 1177.24,372.79 1174.41,372.73 1172.83,372.75 1171.23,372.83 1169.62,372.96 1168,373.13 
		1166.38,373.35 1164.75,373.62 1163.14,373.92 1161.55,374.27 1159.96,374.67 1158.41,375.1 1156.88,375.58 1155.37,376.08 
		1153.94,376.62 1152.52,377.19 1151.17,377.8 1149.87,378.44 1148.65,379.09 1147.53,379.71 1146.45,380.31 1145.43,380.92 
		1144.47,381.53 1143.56,382.15 1142.68,382.79 1141.83,383.44 1140.98,384.13 1140.15,384.85 1139.32,385.62 1138.47,386.44 
		1137.62,387.32 1136.74,388.27 1135.82,389.28 1134.86,390.39 1133.29,388.35 1132.52,387.44 1131.78,386.59 1131.03,385.8 
		1130.27,385.05 1129.49,384.35 1128.7,383.67 1127.89,383.02 1127.02,382.39 1126.1,381.77 1125.15,381.16 1124.12,380.53 
		1123.01,379.9 1121.84,379.25 1120.58,378.57 1119.25,377.89 1117.86,377.25 1116.42,376.64 1114.95,376.08 1113.44,375.55 
		1111.89,375.06 1110.32,374.62 1108.73,374.21 1107.12,373.85 1105.49,373.54 1103.86,373.27 1102.22,373.04 1100.58,372.87 
		1098.95,372.75 1097.35,372.67 1095.75,372.64 1094.36,372.66 1092.98,372.71 1091.59,372.81 1090.18,372.93 1088.79,373.08 
		1087.39,373.28 1086,373.49 1084.64,373.75 1083.29,374.04 1081.96,374.35 1080.66,374.7 1079.38,375.06 1078.14,375.47 
		1076.94,375.9 1075.78,376.34 1074.67,376.82 1073.66,377.27 1072.81,377.66 1072.1,377.99 1071.48,378.28 1070.96,378.53 
		1070.5,378.77 1070.09,379.01 1069.71,379.25 1069.33,379.5 1068.94,379.78 1068.51,380.1 1068.02,380.47 1067.45,380.91 
		1066.78,381.42 1065.99,382.01 1065.07,382.7 1065.07,374.98 1043.4,374.98 	"/>
	<line fill="none" x1="1008.99" y1="405.87" x2="1008.99" y2="436.75"/>
	<polygon fill="#4c729a" points="1008.99,374.98 1030.66,374.98 1030.66,497.46 1008.99,497.46 1008.99,489.26 1008.03,490.09 
		1007.21,490.79 1006.49,491.4 1005.84,491.92 1005.23,492.39 1004.67,492.78 1004.13,493.15 1003.59,493.48 1003.05,493.77 
		1002.48,494.07 1001.86,494.36 1001.19,494.64 1000.43,494.96 999.59,495.32 998.64,495.7 997.55,496.15 996.38,496.61 
		995.15,497.05 993.88,497.47 992.57,497.86 991.23,498.22 989.85,498.56 988.44,498.87 987.01,499.14 985.56,499.39 984.08,499.61 
		982.61,499.79 981.12,499.95 979.63,500.07 978.14,500.16 976.64,500.21 975.15,500.24 973.52,500.21 971.88,500.14 970.23,500.04 
		968.59,499.88 966.94,499.69 965.31,499.46 963.7,499.18 962.08,498.87 960.5,498.53 958.96,498.13 957.43,497.71 955.94,497.26 
		954.49,496.78 953.08,496.26 951.73,495.7 950.42,495.13 949.16,494.5 947.87,493.82 946.6,493.08 945.36,492.28 944.1,491.45 
		942.89,490.56 941.69,489.64 940.52,488.68 939.39,487.68 938.29,486.67 937.24,485.62 936.23,484.55 935.27,483.47 934.38,482.37 
		933.55,481.27 932.77,480.17 932.27,479.37 931.77,478.53 931.28,477.64 930.8,476.72 930.35,475.76 929.89,474.77 929.46,473.77 
		929.05,472.73 928.65,471.67 928.26,470.61 927.91,469.53 927.57,468.46 927.26,467.36 926.96,466.29 926.7,465.23 926.46,464.16 
		926.25,463.08 926.04,461.93 925.86,460.71 925.68,459.43 925.52,458.07 925.37,456.66 925.25,455.17 925.12,453.62 925,452.01 
		924.92,450.34 924.85,448.6 924.78,446.82 924.73,444.98 924.73,374.98 946.4,374.98 946.4,444.98 946.65,448.28 946.76,450.51 
		947,452.65 947.27,454.64 947.56,456.55 947.89,458.35 948.29,460.06 948.77,461.67 949.28,463.21 949.88,464.67 950.54,466.05 
		951.29,467.39 952.09,468.67 952.97,469.88 953.95,471.05 954.97,472.17 956.08,473.18 957.24,474.09 958.47,474.91 959.76,475.64 
		961.08,476.28 962.48,476.85 963.92,477.33 965.4,477.76 966.93,478.11 968.5,478.38 970.1,478.61 971.76,478.76 973.43,478.89 
		975.15,478.96 976.88,478.97 978.54,478.96 980.06,478.92 981.43,478.86 982.66,478.76 983.8,478.65 984.85,478.51 985.81,478.33 
		986.71,478.12 987.56,477.89 988.37,477.62 989.17,477.32 989.97,476.98 990.77,476.59 991.62,476.19 992.5,475.74 993.43,475.25 
		994.38,474.75 995.26,474.25 996.1,473.77 996.9,473.25 997.64,472.74 998.33,472.21 999.01,471.67 999.65,471.09 1000.27,470.49 
		1000.86,469.87 1001.44,469.2 1002.01,468.49 1002.57,467.74 1003.12,466.95 1003.68,466.09 1004.23,465.18 1004.57,464.59 
		1004.89,464 1005.19,463.44 1005.47,462.87 1005.73,462.31 1005.98,461.74 1006.22,461.18 1006.43,460.6 1006.63,460.01 
		1006.82,459.41 1007,458.79 1007.16,458.15 1007.33,457.49 1007.49,456.8 1007.63,456.09 1007.77,455.35 1007.91,454.56 
		1008.04,453.72 1008.16,452.84 1008.27,451.88 1008.39,450.88 1008.49,449.8 1008.56,448.65 1008.65,447.42 1008.72,446.14 
		1008.78,444.79 1008.83,443.35 1008.88,441.82 1008.9,440.22 1008.94,438.52 1008.99,436.75 	"/>
	<line fill="none" x1="859.06" y1="374.98" x2="879.29" y2="374.98"/>
	<polygon fill="#4c729a" points="804.71,497.46 826.39,497.46 826.39,395.63 848.45,395.63 848.45,374.98 826.39,374.98 
		826.39,333.68 804.71,333.68 	"/>
	<path fill="#4c729a" d="M618.75,497.46v-65.5l0.02-1.17l0.05-1.52l0.05-1.44l0.06-1.36l0.07-1.29l0.08-1.22l0.08-1.14l0.09-1.08
		l0.11-1.02l0.12-0.95l0.11-0.89l0.13-0.83l0.14-0.78l0.14-0.75l0.15-0.71l0.16-0.68l0.16-0.67l0.17-0.63l0.18-0.62l0.19-0.61
		l0.2-0.58l0.22-0.58l0.23-0.57l0.25-0.57l0.25-0.56l0.29-0.56l0.29-0.57l0.32-0.57l0.34-0.59l0.55-0.92l0.56-0.85l0.56-0.8
		l0.56-0.76l0.57-0.69l0.58-0.67l0.59-0.63l0.62-0.6l0.64-0.57l0.68-0.55l0.7-0.53l0.75-0.52l0.79-0.5l0.83-0.5l0.89-0.5l0.95-0.51
		l0.94-0.48l0.88-0.45l0.84-0.41l0.81-0.38l0.79-0.33l0.8-0.31l0.82-0.27l0.84-0.24l0.9-0.21l0.96-0.17l1.04-0.15l1.14-0.12
		l1.24-0.09l1.37-0.06l1.51-0.04l1.67-0.01l1.74,0.02l1.71,0.07l1.68,0.11l1.65,0.17l1.61,0.22l1.57,0.29l1.53,0.34l1.48,0.42
		l1.44,0.49l1.39,0.56l1.34,0.65l1.29,0.73l1.22,0.82l1.16,0.91l1.1,1.01l1.04,1.11l0.97,1.18l0.88,1.22l0.81,1.27l0.73,1.33
		l0.67,1.39l0.6,1.46l0.52,1.54l0.47,1.61l0.4,1.7l0.34,1.81l0.28,1.9l0.23,2l0.18,2.13l0.12,2.25l0.07,2.36v0.24v70.51h21.68
		c0,0,0-76.81-0.01-76.86l-0.11-1.61l-0.12-1.54l-0.13-1.48l-0.15-1.42l-0.16-1.35l-0.18-1.29l-0.19-1.22l-0.2-1.14l-0.22-1.08
		l-0.24-1.06l-0.26-1.08l-0.29-1.08l-0.32-1.08l-0.33-1.07l-0.36-1.08l-0.38-1.07l-0.4-1.05l-0.42-1.03l-0.42-1.01l-0.46-0.99
		l-0.47-0.96l-0.48-0.92l-0.49-0.89l-0.49-0.84l-0.52-0.8l-0.76-1.1l-0.84-1.1l-0.89-1.09l-0.96-1.08l-1-1.07l-1.06-1.05l-1.09-1.02
		l-1.14-0.99l-1.17-0.96l-1.2-0.92l-1.22-0.88l-1.24-0.84l-1.26-0.79l-1.27-0.74l-1.28-0.68l-1.27-0.63l-1.3-0.58l-1.35-0.55
		l-1.4-0.52l-1.45-0.49l-1.49-0.45l-1.52-0.43l-1.55-0.38l-1.58-0.35l-1.61-0.31l-1.61-0.27l-1.64-0.24l-1.64-0.19l-1.64-0.15
		l-1.65-0.12l-1.64-0.06l-1.63-0.03l-1.49,0.02l-1.49,0.05l-1.49,0.09l-1.5,0.12l-1.48,0.16l-1.49,0.18l-1.47,0.22l-1.45,0.25
		l-1.43,0.28l-1.41,0.31l-1.37,0.33l-1.34,0.37l-1.31,0.4l-1.27,0.41l-1.22,0.44l-1.18,0.47l-1.08,0.44l-0.96,0.39l-0.84,0.35
		l-0.75,0.31l-0.67,0.3l-0.62,0.29l-0.57,0.29l-0.55,0.3l-0.53,0.33l-0.54,0.36l-0.56,0.4l-0.61,0.46l-0.65,0.53l-0.73,0.61
		l-0.81,0.7l-1.91,1.66v-9.19H597.1V497.5h21.65V497.46z"/>
	<rect x="562.68" y="333.68" fill="#4c729a" width="21.67" height="26.08"/>
	<rect x="562.68" y="374.98" fill="#4c729a" width="21.67" height="122.48"/>
	<polyline fill="#4c729a" points="713.68,455.91 734.25,455.91 734.25,455.91 734.27,457.28 734.3,458.62 734.37,459.94 
		734.46,461.23 734.6,462.49 734.77,463.74 734.99,464.95 735.25,466.15 735.57,467.31 735.94,468.44 736.38,469.54 736.87,470.62 
		737.43,471.67 738.07,472.67 738.78,473.66 739.57,474.61 740.36,475.47 741.14,476.27 741.92,477 742.71,477.69 743.49,478.31 
		744.3,478.88 745.11,479.39 745.94,479.83 746.8,480.23 747.69,480.57 748.61,480.85 749.57,481.09 750.57,481.26 751.6,481.4 
		752.7,481.47 753.84,481.5 754.71,481.49 755.57,481.44 756.43,481.38 757.27,481.28 758.11,481.15 758.94,480.98 759.75,480.78 
		760.57,480.53 761.38,480.24 762.17,479.91 762.96,479.53 763.74,479.09 764.51,478.62 765.28,478.08 766.03,477.49 766.77,476.83 
		767.49,476.13 768.15,475.43 768.75,474.71 769.31,473.98 769.81,473.25 770.26,472.48 770.67,471.72 771.02,470.95 771.34,470.17 
		771.6,469.38 771.82,468.58 771.99,467.78 772.13,466.97 772.21,466.16 772.26,465.35 772.27,464.53 772.24,463.63 772.18,462.77 
		772.11,461.93 772.01,461.12 771.88,460.32 771.71,459.54 771.51,458.77 771.27,458.04 771.01,457.32 770.71,456.6 770.36,455.93 
		769.97,455.23 769.55,454.58 769.08,453.92 768.57,453.27 768.01,452.63 767.4,452.01 766.75,451.4 766.05,450.81 765.31,450.24 
		764.52,449.67 763.67,449.12 762.77,448.57 761.81,448.04 760.79,447.5 759.71,446.97 758.57,446.45 757.36,445.92 756.07,445.39 
		754.72,444.88 753.3,444.34 751.8,443.8 749.39,442.93 747.07,442.05 744.86,441.18 742.74,440.28 740.71,439.39 738.8,438.5 
		736.98,437.59 735.26,436.7 733.67,435.79 732.17,434.88 730.78,433.98 729.5,433.08 728.35,432.17 727.3,431.27 726.38,430.38 
		725.56,429.48 724.83,428.55 724.12,427.54 723.44,426.45 722.8,425.32 722.19,424.11 721.62,422.85 721.1,421.54 720.61,420.19 
		720.18,418.79 719.8,417.38 719.46,415.93 719.18,414.46 718.97,412.96 718.8,411.47 718.71,409.96 718.67,408.46 718.72,406.75 
		718.87,405.05 719.11,403.35 719.45,401.65 719.87,399.96 720.39,398.29 720.98,396.65 721.66,395.02 722.42,393.44 723.26,391.88 
		724.16,390.37 725.14,388.91 726.18,387.5 727.28,386.15 728.45,384.87 729.68,383.64 730.98,382.49 732.33,381.41 733.75,380.37 
		735.23,379.41 736.76,378.5 738.34,377.67 739.95,376.91 741.6,376.22 743.3,375.61 745.01,375.06 746.75,374.6 748.51,374.22 
		750.28,373.92 752.07,373.7 753.86,373.57 755.64,373.52 757.53,373.56 759.41,373.68 761.27,373.87 763.09,374.14 764.88,374.48 
		766.65,374.89 768.37,375.37 770.04,375.92 771.67,376.53 773.24,377.2 774.75,377.94 776.21,378.74 777.59,379.59 778.9,380.51 
		780.14,381.48 781.3,382.5 782.79,383.99 784.14,385.52 785.36,387.09 786.46,388.69 787.45,390.34 788.32,392.02 789.08,393.73 
		789.75,395.48 790.31,397.25 790.79,399.06 791.18,400.87 791.48,402.72 791.71,404.6 791.87,406.49 791.97,410.33 770.85,410.33 
		770.85,410.33 770.85,409.3 770.81,408.27 770.72,407.25 770.58,406.23 770.41,405.22 770.18,404.25 769.92,403.3 769.6,402.37 
		769.25,401.48 768.85,400.62 768.42,399.81 767.95,399.04 767.42,398.33 766.87,397.66 766.26,397.06 765.62,396.52 764.96,396.04 
		764.3,395.61 763.64,395.21 762.98,394.84 762.31,394.52 761.63,394.24 760.96,393.98 760.28,393.77 759.6,393.58 758.91,393.43 
		758.22,393.3 757.52,393.2 756.82,393.12 756.11,393.06 755.4,393.03 754.68,393.02 753.96,393.04 753.21,393.1 752.47,393.19 
		751.72,393.31 750.96,393.47 750.21,393.66 749.47,393.88 748.74,394.14 748.04,394.43 747.35,394.75 746.68,395.1 746.05,395.48 
		745.45,395.88 744.89,396.31 744.37,396.77 743.89,397.26 743.46,397.77 743.04,398.28 742.63,398.79 742.24,399.33 741.88,399.87 
		741.54,400.44 741.22,401.02 740.93,401.63 740.66,402.26 740.43,402.92 740.22,403.62 740.05,404.34 739.92,405.1 739.83,405.91 
		739.76,406.75 739.74,407.63 739.75,408.26 739.77,408.86 739.79,409.42 739.83,409.94 739.89,410.45 739.97,410.93 740.05,411.4 
		740.15,411.84 740.27,412.27 740.4,412.7 740.55,413.12 740.72,413.54 740.92,413.95 741.12,414.37 741.34,414.79 741.59,415.22 
		741.84,415.65 742.09,416.06 742.36,416.44 742.62,416.8 742.91,417.15 743.2,417.48 743.51,417.8 743.84,418.12 744.18,418.44 
		744.55,418.74 744.95,419.05 745.37,419.37 745.84,419.68 746.33,420.01 746.85,420.34 747.43,420.69 747.97,421.01 748.52,421.33 
		749.09,421.64 749.67,421.94 750.27,422.23 750.9,422.52 751.55,422.82 752.22,423.1 752.94,423.39 753.68,423.67 754.46,423.95 
		755.28,424.24 756.14,424.53 757.04,424.81 758,425.12 759,425.41 760.02,425.72 761,426 761.96,426.29 762.88,426.55 
		763.78,426.82 764.63,427.07 765.45,427.31 766.22,427.56 766.96,427.78 767.65,427.99 768.29,428.2 768.88,428.39 769.42,428.58 
		769.92,428.75 770.35,428.91 770.73,429.07 772.1,429.66 773.45,430.28 774.76,430.95 776.04,431.64 777.28,432.36 778.49,433.13 
		779.65,433.91 780.77,434.71 781.85,435.55 782.88,436.41 783.85,437.28 784.77,438.17 785.65,439.1 786.45,440.03 787.2,440.97 
		787.88,441.92 788.53,442.93 789.15,444 789.72,445.13 790.27,446.31 790.79,447.55 791.26,448.85 791.7,450.18 792.1,451.54 
		792.46,452.94 792.79,454.38 793.06,455.83 793.29,457.31 793.47,458.79 793.6,460.28 793.67,461.78 793.7,463.27 793.65,465.14 
		793.5,467 793.25,468.85 792.92,470.69 792.48,472.51 791.96,474.3 791.35,476.07 790.65,477.79 789.87,479.48 789.01,481.12 
		788.07,482.72 787.05,484.25 785.95,485.73 784.8,487.14 783.57,488.48 782.27,489.75 780.9,490.94 779.45,492.07 777.93,493.13 
		776.33,494.14 774.68,495.06 772.96,495.93 771.19,496.72 769.37,497.42 767.5,498.07 765.6,498.63 763.66,499.11 761.69,499.51 
		759.7,499.82 757.68,500.04 755.65,500.18 753.62,500.23 751.53,500.18 749.45,500.03 747.39,499.78 745.34,499.43 743.32,498.98 
		741.33,498.45 739.39,497.83 737.49,497.11 735.65,496.32 733.87,495.44 732.15,494.47 730.5,493.44 728.94,492.32 727.46,491.12 
		726.08,489.85 724.81,488.52 723.11,486.54 721.58,484.56 720.23,482.6 719.03,480.65 717.99,478.7 717.08,476.75 716.3,474.79 
		715.64,472.81 715.1,470.82 714.67,468.79 714.32,466.75 714.06,464.67 713.88,462.56 713.76,460.39 713.68,455.91 	"/>
	<polygon fill="#4c729a" points="696.33,177.52 696.33,73.14 731.12,73.14 731.12,316.7 696.82,316.7 696.33,316.7 696.33,211.47 
		597.47,211.47 597.47,316.7 596.98,316.7 562.68,316.7 562.68,73.14 597.47,73.14 597.47,177.52 	"/>
	<rect x="528.19" y="73.14" fill="#4c729a" width="4.78" height="424.32"/>
	<rect x="512.25" y="73.14" fill="#4c729a" width="4.78" height="424.32"/>
	<rect x="496.33" y="73.14" fill="#4c729a" width="4.78" height="424.32"/>
	<rect x="480.39" y="73.14" fill="#4c729a" width="4.78" height="424.32"/>
	<rect x="464.46" y="73.14" fill="#4c729a" width="4.78" height="424.32"/>
	<rect x="448.53" y="73.14" fill="#4c729a" width="4.77" height="424.32"/>
	<rect x="432.59" y="73.14" fill="#4c729a" width="4.78" height="424.32"/>
	<rect x="416.66" y="73.14" fill="#4c729a" width="4.79" height="424.32"/>
	<rect x="241.4" y="73.14" fill="#4c729a" width="4.78" height="424.32"/>
	<rect x="225.47" y="73.14" fill="#4c729a" width="4.78" height="424.32"/>
	<rect x="209.54" y="73.14" fill="#4c729a" width="4.78" height="424.32"/>
	<rect x="193.6" y="73.14" fill="#4c729a" width="4.78" height="424.32"/>
	<rect x="177.67" y="73.14" fill="#4c729a" width="4.78" height="424.32"/>
	<rect x="161.74" y="73.14" fill="#4c729a" width="4.78" height="424.32"/>
	<rect x="145.8" y="73.14" fill="#4c729a" width="4.78" height="424.32"/>
	<rect x="129.87" y="73.14" fill="#4c729a" width="4.78" height="424.32"/>
	<path fill="#4c729a" d="M257.33,73.14v424.32H405.5V73.14H257.33z M273.26,273.94h-11.15V207.7h11.15V273.94z M289.2,273.94h-11.15
		V207.7h11.15V273.94z M305.14,273.94h-11.15V207.7h11.15V273.94z M321.06,273.94H309.9V207.7h11.16V273.94z M336.99,273.94h-11.15
		V207.7h11.15V273.94z M352.93,273.94h-11.15V207.7h11.15V273.94z M368.87,273.94h-11.16V207.7h11.16V273.94z M384.8,273.94h-11.16
		V207.7h11.16V273.94z M400.73,273.94h-11.15V207.7h11.15V273.94z"/>
	<path fill="#4c729a" d="M791.24,73.14h-35.25V316.7h34.8v-73.75h76.88l51.64,73.75h42.48L791.24,73.14z M790.79,212.4v-79.24
		l55.48,79.24H790.79z"/>
	<polygon fill="#4c729a" points="1125.09,316.7 996.58,133.16 996.58,316.7 961.79,316.7 961.79,73.14 997.03,73.14 1125.09,256.04 
		1125.09,73.14 1159.89,73.14 1159.89,316.7 	"/>
	<polygon fill="#4c729a" points="1375.83,316.7 1375.83,73.14 1341.03,73.14 1341.03,256.04 1212.97,73.14 1177.72,73.14 
		1177.72,316.7 1212.51,316.7 1212.51,133.16 1341.03,316.7 	"/>
	<path fill="#4c729a" d="M1435.94,73.14h-35.24V316.7h34.77v-73.75h76.9L1564,316.7h42.49L1435.94,73.14z M1435.48,212.4v-79.24
		l55.5,79.24H1435.48z"/>
	<path fill="#4c729a" d="M914.12,393.52v-20.27l-5.88,0.13l-1.05,0.03l-0.99,0.04l-0.96,0.05l-0.94,0.07l-0.9,0.09l-0.92,0.1
		l-0.93,0.13l-0.96,0.16l-0.99,0.2l-1.06,0.23l-1.12,0.27l-1.21,0.3l-1.3,0.37l-1.43,0.41l-1.39,0.54l-1.26,0.52l-1.15,0.5
		l-1.04,0.49l-0.95,0.48l-0.87,0.49l-0.82,0.49l-0.76,0.5l-0.71,0.51l-0.71,0.54l-0.68,0.56l-0.67,0.6l-0.71,0.63l-0.72,0.68
		l-0.76,0.73l-0.58,0.55V375h-20.64v122.48c0,0,21.67,0,21.67,0.01v-72.38l0.18-1.76l0.27-1.73l0.35-1.67l0.43-1.61l0.48-1.55
		l0.57-1.48l0.63-1.43l0.66-1.37l0.72-1.32l0.74-1.27l0.79-1.22l0.81-1.15l0.83-1.1l0.83-1.05l0.83-1l0.86-0.94l0.88-0.88l0.93-0.82
		l0.97-0.77l1.03-0.73l1.07-0.69l1.15-0.64l1.21-0.61l1.27-0.58l1.36-0.57l1.43-0.54l1.53-0.52l1.62-0.52l1.72-0.51l1.82-0.52
		L914.12,393.52z"/>
	<g>
		<path fill="#4c729a" d="M1529.35,70.25c16.36,0,29.44,13.31,29.44,29.96c0,16.91-13.07,30.09-29.57,30.09
			c-16.38,0-29.69-13.18-29.69-30.09c0-16.65,13.31-29.96,29.69-29.96H1529.35z M1529.21,74.92c-13.17,0-23.97,11.32-23.97,25.3
			c0,14.24,10.81,25.43,24.11,25.43c13.31,0.13,23.96-11.19,23.96-25.31c0-14.1-10.65-25.42-23.96-25.42H1529.21L1529.21,74.92z
			 M1523.62,117.66h-5.34V84.24c2.8-0.41,5.46-0.8,9.48-0.8c5.05,0,8.37,1.06,10.36,2.54c2.01,1.46,3.07,3.73,3.07,6.92
			c0,4.4-2.92,7.06-6.52,8.13v0.27c2.93,0.53,4.92,3.19,5.58,8.12c0.83,5.19,1.61,7.19,2.13,8.26h-5.58
			c-0.79-1.07-1.61-4.14-2.26-8.53c-0.8-4.26-2.93-5.86-7.2-5.86h-3.73L1523.62,117.66L1523.62,117.66z M1523.62,99.16h3.86
			c4.4,0,8.13-1.6,8.13-5.73c0-2.93-2.15-5.86-8.13-5.86c-1.73,0-2.92,0.13-3.86,0.26V99.16z"/>
	</g>
</g>
</svg>
